<?xml version="1.0" encoding="UTF-8" standalone="no"?>
<!-- Created with Inkscape (http://www.inkscape.org/) -->

<svg
   width="279.81754mm"
   height="182.29491mm"
   viewBox="0 0 279.81754 182.29491"
   version="1.1"
   id="svg5"
   inkscape:version="1.1.2 (b8e25be833, 2022-02-05)"
   sodipodi:docname="instructions.svg"
   xmlns:inkscape="http://www.inkscape.org/namespaces/inkscape"
   xmlns:sodipodi="http://sodipodi.sourceforge.net/DTD/sodipodi-0.dtd"
   xmlns="http://www.w3.org/2000/svg"
   xmlns:svg="http://www.w3.org/2000/svg">
  <sodipodi:namedview
     id="namedview7"
     pagecolor="#ffffff"
     bordercolor="#666666"
     borderopacity="1.0"
     inkscape:pageshadow="2"
     inkscape:pageopacity="0.0"
     inkscape:pagecheckerboard="0"
     inkscape:document-units="mm"
     showgrid="false"
     fit-margin-top="0"
     fit-margin-left="0"
     fit-margin-right="0"
     fit-margin-bottom="0"
     inkscape:zoom="1.0998546"
     inkscape:cx="320.0423"
     inkscape:cy="394.59761"
     inkscape:window-width="3377"
     inkscape:window-height="1417"
     inkscape:window-x="55"
     inkscape:window-y="-8"
     inkscape:window-maximized="1"
     inkscape:current-layer="layer1" />
  <defs
     id="defs2" />
  <g
     inkscape:label="Capa 1"
     inkscape:groupmode="layer"
     id="layer1"
     transform="translate(106.95153,-25.525162)">
    <path
       style="fill:#000000;stroke-width:0.264583"
       d="m -106.59508,207.38831 c -0.0913,-0.23802 -0.16606,-2.6767 -0.16606,-5.4193 0,-4.18045 0.0672,-5.05376 0.41577,-5.40232 0.51057,-0.51057 1.0431,-0.53114 1.48566,-0.0574 0.2814,0.30124 0.48146,0.29711 1.25448,-0.0259 1.00493,-0.41988 2.58276,-0.14308 3.16186,0.5547 0.24325,0.29309 0.522268,0.2432 1.587068,-0.28376 1.57668,-0.78029 2.96265,-0.62459 4.04125,0.45401 1.07392,1.07393 1.37982,2.57783 1.03918,5.10899 -0.38077,2.82936 -0.35949,4.0259 0.0781,4.38904 0.52523,0.4359 1.13044,0.10965 1.79687,-0.96866 0.49004,-0.79291 0.57362,-1.27441 0.5222,-3.00856 -0.0756,-2.55127 0.27946,-3.93588 1.3107,-5.11039 2.06949,-2.35702 5.28545,-1.52968 6.35246,1.63424 0.37745,1.11923 0.46978,3.72688 0.17823,5.03381 -0.16044,0.71922 -0.11499,0.85989 0.27782,0.85989 0.98445,0 1.10463,-0.50759 1.10463,-4.66529 0,-3.69612 0.0408,-4.04324 0.49189,-4.18642 1.19551,-0.37943 1.29815,-0.0765 1.41378,4.17297 0.12085,4.44096 0.46922,5.769 1.65508,6.30932 0.58483,0.26646 0.76465,0.22726 1.31073,-0.28576 0.91146,-0.85627 1.21394,-2.43787 1.21394,-6.34746 0,-3.17462 0.0416,-3.46766 0.52917,-3.72861 0.37597,-0.20121 0.68236,-0.20121 1.05833,0 0.49964,0.2674 0.52917,0.55399 0.52917,5.13629 0,3.792 0.0794,4.91902 0.36333,5.15463 0.55233,0.45839 1.16946,0.0831 1.89264,-1.15089 0.65417,-1.11626 0.65444,-1.11985 0.65444,-8.54906 0,-6.40389 0.0575,-7.48987 0.41578,-7.84811 0.45598,-0.45599 0.65557,-0.4957 1.28237,-0.25517 0.34758,0.13338 0.41852,0.66906 0.41852,3.1605 v 2.99991 l 1.25439,0.0806 c 0.94517,0.0608 1.27607,0.19478 1.34232,0.54366 0.0744,0.39168 -0.11889,0.46302 -1.2544,0.46302 h -1.34231 v 4.50642 c 0,3.33662 0.0995,4.74459 0.38338,5.42396 0.21085,0.50464 0.50291,0.91754 0.64901,0.91754 0.64587,0 1.54158,-0.63223 2.14746,-1.51577 0.65331,-0.95271 0.65728,-0.99607 0.7889,-8.62213 0.11954,-6.92591 0.17692,-7.69271 0.59532,-7.95627 0.33733,-0.21249 0.5887,-0.2125 0.92604,-1e-5 0.40045,0.25225 0.47289,0.8119 0.53609,4.14183 l 0.0731,3.85017 1.00619,-0.39524 c 2.00897,-0.78915 4.28291,0.54386 4.69748,2.75372 0.10029,0.53459 0.0366,2.24864 -0.14159,3.80901 -0.33589,2.9417 -0.17643,3.93469 0.63187,3.93469 0.45225,0 1.38908,-1.15827 1.87251,-2.3151 0.35266,-0.84391 0.98459,-1.1257 1.31727,-0.58741 0.22944,0.37124 -1.03372,2.47225 -1.89247,3.14774 -0.38353,0.30169 -1.02872,0.54852 -1.43375,0.54852 -2.06907,0 -2.46243,-0.90704 -2.4833,-5.72601 -0.0144,-3.32309 -0.0738,-3.80543 -0.53156,-4.312 -0.75037,-0.83046 -1.71759,-0.62216 -2.38212,0.51301 -0.46603,0.79608 -0.56067,1.52016 -0.6744,5.15938 l -0.13229,4.23333 -0.85081,0.0822 c -0.71664,0.0693 -0.87671,-0.0209 -1.01499,-0.57187 l -0.16417,-0.6541 -0.94016,0.63802 c -1.36293,0.92491 -3.04456,0.88173 -4.02975,-0.10346 l -0.74147,-0.74147 -0.82985,0.74147 c -1.04762,0.93604 -2.48812,1.00795 -3.38137,0.16879 -0.58677,-0.55125 -0.6291,-0.55503 -1.13079,-0.101 -1.2376,1.12001 -3.96684,0.69246 -4.92621,-0.77173 -0.35203,-0.53726 -0.63008,-0.63901 -1.72306,-0.63055 -1.0553,0.008 -1.39879,0.13149 -1.80512,0.64806 -1.45209,1.84603 -4.42125,1.87082 -5.69831,0.0476 l -0.41297,-0.5896 -0.76839,0.84128 c -1.35181,1.48005 -3.0881,1.47878 -4.01443,-0.003 -0.4821,-0.77115 -0.51934,-1.15676 -0.38895,-4.0278 0.10032,-2.20894 0.0436,-3.44904 -0.18625,-4.07566 -0.41474,-1.13043 -1.0774,-1.58913 -1.71951,-1.19024 -0.99988,0.62114 -1.24561,1.69582 -1.38557,6.05965 l -0.13578,4.23334 -0.850818,0.0822 c -1.08595,0.10496 -1.10537,0.0192 -1.19547,-5.2808 -0.0624,-3.67125 -0.12867,-4.20454 -0.58495,-4.708 -0.70426,-0.77708 -1.47108,-0.59082 -2.11555,0.51386 -0.46323,0.79402 -0.55944,1.52958 -0.67486,5.15937 l -0.1346,4.23334 -0.82613,0.0804 c -0.57319,0.0558 -0.87696,-0.0521 -0.99218,-0.35237 z m 20.124078,-0.98479 c 0.82153,-0.90797 1.14111,-2.18154 1.14111,-4.54748 0,-1.70699 -0.12342,-2.39815 -0.59532,-3.33396 -0.49837,-0.98831 -0.71991,-1.18054 -1.36051,-1.18054 -1.0268,0 -1.67222,0.91934 -2.03548,2.89939 -0.34563,1.88389 -0.11032,4.13727 0.57161,5.47396 0.72021,1.41174 1.43018,1.62631 2.27859,0.68863 z m 33.6954,1.0049 c -0.70285,-0.84689 0.32947,-2.14783 1.24622,-1.5705 0.91608,0.5769 0.58971,1.95466 -0.46302,1.95466 -0.2554,0 -0.60784,-0.17287 -0.7832,-0.38416 z m 0.57154,-21.10001 c -0.22425,-0.22424 -0.3175,-1.7667 -0.3175,-5.2514 v -4.9339 l -0.78859,-0.0224 c -0.53842,-0.0153 -0.94965,0.18235 -1.29635,0.6231 -1.21905,1.54978 -3.41395,1.89483 -4.77393,0.75048 -0.94225,-0.79286 -1.12903,-1.96087 -0.31357,-1.96087 0.31163,0 0.56241,0.24672 0.66459,0.65383 0.34175,1.36164 2.17842,1.53884 2.75832,0.26611 0.76681,-1.68296 0.14674,-3.18766 -2.26726,-5.50188 l -1.05361,-1.01007 -0.1796,1.14236 c -0.47491,3.02077 -1.68964,5.40015 -3.31668,6.49662 -1.62065,1.09216 -4.51593,0.66273 -6.16202,-0.91394 l -0.7214,-0.69098 -0.55873,0.7103 c -0.75235,0.95646 -1.86195,1.49349 -3.08583,1.49349 -2.75702,0 -3.26807,-2.33199 -1.64527,-7.50763 0.27946,-0.89127 0.50964,-1.65026 0.51152,-1.68664 0.002,-0.0364 -0.5919,-0.0661 -1.31951,-0.0661 h -1.32291 l -0.006,0.99219 c -0.0101,1.54346 -0.47102,3.20379 -1.46301,5.2697 -1.02406,2.13273 -2.07581,2.99853 -3.64252,2.99853 -2.84205,0 -3.43809,-1.80945 -2.16337,-6.56753 0.36344,-1.35657 0.66079,-2.51743 0.66079,-2.57969 0,-0.0623 -0.59531,-0.1132 -1.32291,-0.1132 h -1.32292 v 1.31736 c 0,1.69473 -0.94356,4.56799 -1.7484,5.3241 -0.43345,0.40721 -0.92254,0.57714 -1.58898,0.55209 -0.73708,-0.0277 -1.08448,0.11851 -1.4819,0.62375 -1.34474,1.70957 -3.80629,1.89765 -5.34296,0.40826 l -0.85652,-0.83018 -0.50989,0.57216 c -1.7365,1.94858 -5.916328,1.62022 -7.593818,-0.59655 -1.88075,-2.48537 -1.44759,-6.83866 0.87492,-8.79292 0.79,-0.66474 1.45127,-0.83142 2.90172,-0.73144 1.69021,0.11652 2.331548,0.58383 1.8564,1.35264 -0.16849,0.27262 -0.33632,0.25435 -0.82815,-0.0901 -0.84034,-0.5886 -2.16233,-0.55008 -2.73219,0.0796 -0.75318,0.83224 -1.18251,2.40771 -1.19446,4.38314 -0.0186,3.07187 1.26275,4.7625 3.60951,4.7625 1.06286,0 1.302018,-0.1163 2.072788,-1.00795 0.85616,-0.99043 0.87073,-1.05021 0.83857,-3.43959 -0.0276,-2.0492 0.0643,-2.63144 0.58389,-3.70212 1.3049,-2.68862 4.21632,-3.22984 6.06261,-1.12703 1.16397,1.32568 1.46204,2.51472 1.30794,5.21745 -0.1385,2.42909 -0.003,2.7253 0.91786,2.00872 0.60155,-0.46804 1.26356,-2.63415 1.26356,-4.13439 0,-0.69939 -0.17306,-1.84665 -0.38457,-2.54946 -0.21152,-0.70282 -0.32356,-1.37658 -0.24897,-1.49726 0.24758,-0.40059 1.95646,-0.25372 1.95646,0.16815 0,0.51743 0.83143,0.93535 1.86083,0.93535 0.57482,0 1.05716,-0.23299 1.53874,-0.74329 0.5389,-0.57102 0.85477,-0.70538 1.36293,-0.57973 0.86422,0.2137 0.82754,0.79421 -0.24123,3.81745 -0.95432,2.69951 -1.26707,4.96289 -0.83819,6.06607 0.25395,0.65325 0.39118,0.7308 1.01577,0.57404 1.04915,-0.26332 1.38597,-0.62187 2.20022,-2.34214 0.90381,-1.9095 1.14777,-3.61415 0.76383,-5.33719 -0.51376,-2.30562 -0.47581,-2.63554 0.31375,-2.72695 0.47319,-0.0548 0.92017,0.13845 1.37703,0.59531 0.9596,0.9596 2.34468,0.92751 3.29509,-0.0763 0.5555,-0.58674 0.85858,-0.71439 1.37415,-0.57877 0.84128,0.22129 0.81403,0.5744 -0.27627,3.58048 -1.04702,2.88675 -1.37683,6.14347 -0.68066,6.72124 0.60146,0.49917 1.71656,-0.006 2.4813,-1.12508 0.50556,-0.73951 0.60967,-1.28225 0.67144,-3.50027 0.0579,-2.07814 0.19188,-2.85091 0.6432,-3.70912 0.70355,-1.33786 1.71729,-2.03081 2.97094,-2.03081 2.15399,0 3.45046,1.50129 3.45046,3.99555 0,1.64832 -0.60316,2.21434 -2.83349,2.65897 -2.18278,0.43515 -2.31597,0.55373 -1.85042,1.64746 0.90155,2.11799 3.00087,2.91201 4.68391,1.77157 1.04936,-0.71104 1.96688,-2.69037 2.40243,-5.18264 0.81787,-4.67998 1.01503,-5.11533 2.21284,-4.88636 0.52971,0.10126 0.67639,0.28674 0.67639,0.85529 0,0.84668 0.8758,2.21638 2.68357,4.19694 0.85033,0.93161 1.38956,1.81016 1.58333,2.57969 0.31884,1.26621 0.50214,1.38719 1.13816,0.75117 0.33961,-0.33961 0.41578,-1.11612 0.41578,-4.23901 v -3.82323 l 0.67123,-0.30583 c 0.54363,-0.24769 0.74846,-0.2286 1.07748,0.10042 0.34982,0.34982 0.54613,0.35806 1.41318,0.0593 1.36043,-0.46871 2.65382,-0.0873 3.68437,1.08641 1.10266,1.25586 1.44978,2.72196 1.26784,5.35486 -0.15476,2.23951 -0.036,2.50427 0.86685,1.93303 0.28602,-0.18097 0.38648,-0.86128 0.39987,-2.70793 0.0154,-2.1188 0.11064,-2.63068 0.67634,-3.63343 0.91691,-1.62531 1.76241,-2.1842 3.3043,-2.1842 1.54101,0 2.38557,0.55776 3.30729,2.1842 0.59189,1.04443 0.65927,1.45242 0.64069,3.87917 -0.0216,2.82676 0.15249,3.20391 1.0602,2.2962 0.33946,-0.33946 0.41578,-1.11476 0.41578,-4.22402 0,-3.57865 0.033,-3.8259 0.5469,-4.10095 0.41545,-0.22234 0.68575,-0.20569 1.12448,0.0693 0.4683,0.29348 0.75278,0.30107 1.50362,0.0401 1.7412,-0.60519 3.51554,0.20019 4.28794,1.94631 0.51258,1.15879 0.52154,1.36604 0.19404,4.48848 -0.30081,2.86793 -0.29413,3.32282 0.0539,3.67085 0.54015,0.54015 1.15962,0.24617 1.85617,-0.88086 0.4889,-0.79106 0.58493,-1.34731 0.60067,-3.47948 0.0162,-2.19902 0.10706,-2.69374 0.68019,-3.70508 0.36381,-0.64196 0.96734,-1.39326 1.3412,-1.66957 0.69473,-0.51346 2.33322,-0.68359 3.38096,-0.35105 0.56375,0.17893 0.56951,0.14466 0.56951,-3.39005 0,-2.89341 0.0789,-3.64968 0.41578,-3.98658 0.49188,-0.49188 0.52724,-0.4961 1.18911,-0.14188 0.48949,0.26197 0.51178,0.63993 0.51178,8.68068 0,9.32562 0.0785,9.83118 1.39289,8.96997 0.36481,-0.23904 0.91502,-0.95462 1.2227,-1.59019 0.48821,-1.00852 0.55941,-1.62928 0.55941,-4.87765 0,-3.32627 0.0492,-3.73384 0.46302,-3.83277 1.33145,-0.31834 1.35106,-0.25087 1.43902,4.95126 0.0667,3.94293 0.15949,4.94675 0.4877598,5.27449 0.3639,0.36332 0.46603,0.36233 0.99707,-0.01 0.32539,-0.22792 0.88709,-0.99747 1.24821,-1.7101 0.60288,-1.18973 0.65658,-1.58856 0.65658,-4.87638 0,-3.22183 0.0464,-3.58381 0.46303,-3.61201 0.76258,-0.0516 1.25144,0.0653 1.34551,0.32181 0.0488,0.1331 0.21168,0.16602 0.36194,0.0732 0.62599,-0.38689 2.14696,-0.56233 2.95082,-0.34037 0.47405,0.13089 1.21232997,0.60544 1.64061997,1.05457 l 0.77871,0.81658 -0.0664,4.18378 c -0.0583,3.6777 -0.0137,4.20398 0.36899,4.35084 0.24886003,0.0955 0.65728003,-0.0338 0.95336003,-0.30171 0.97472,-0.88211 1.25757,-1.8199 1.25757,-4.16955 0,-2.51018 0.39124,-3.78844 1.52035,-4.96725 0.96212,-1.00448 2.24164,-1.32373 3.52847,-0.88038 0.55855,0.19244 1.05005,0.26212 1.09222,0.15485 0.17854,-0.45418 1.2262702,-0.53279 1.6362902,-0.12278 0.36032,0.36033 0.42475,1.19196 0.42475,5.48244 v 5.05769 l 0.78154,-0.74877 c 0.42985,-0.41182 0.97122,-1.14847 1.20304,-1.637 0.41587,-0.87636 0.99929,-1.14696 1.3276,-0.61574 0.27597,0.44653 -1.16302,2.62006 -2.24004,3.38347 l -1.00119,0.70966 -0.13022,2.9171 c -0.0896,2.00741 -0.26966,3.18674 -0.57737,3.78178 -1.3538502,2.61806 -4.3904402,1.05064 -4.3904402,-2.26624 0,-1.79565 0.57455,-3.04091 1.89125,-4.09904 1.17559,-0.94473 1.31878,-1.36045 0.34048,-0.9885 -1.52874,0.58123 -3.58836,-0.0141 -4.36808,-1.26266 -0.27569,-0.44144 -0.3783,-0.40032 -1.29932,0.5207 -1.25383,1.25383 -2.47893003,1.36573 -3.46353003,0.31636 -0.61509997,-0.65557 -0.64191997,-0.83746 -0.65347997,-4.43177 -0.0132,-4.11683 -0.26867,-5.0977 -1.40157,-5.38204 -0.50748,-0.12737 -0.79903,-0.006 -1.25256,0.52121 -0.83587,0.97175 -1.17028,2.88114 -1.17028,6.68197 v 3.29427 h -0.92604 c -0.86665,0 -0.92658,-0.0551 -0.93445,-0.8599 -0.007,-0.72403 -0.0593,-0.79527 -0.33073,-0.45088 -1.16453,1.47779 -2.9883598,1.72815 -4.1471998,0.56931 l -0.74147,-0.74147 -0.82985,0.74147 c -0.99535,0.88934 -2.29744,0.98121 -3.25304,0.22954 -0.64288,-0.50569 -0.66024,-0.50572 -1.42474,-0.002 -0.85561,0.56402 -2.47731,0.67186 -3.37102,0.22416 -0.31785,-0.15923 -0.83349,-0.59223 -1.14587,-0.96222 l -0.56795,-0.67271 -0.96222,0.96222 c -0.68349,0.6836 -1.19464,0.96233 -1.76455,0.96233 -2.14176,0 -2.69357,-1.22595 -2.47482,-5.49831 0.13752,-2.6861 0.0942,-3.22446 -0.32375,-4.02669 -0.38835,-0.74533 -0.63741,-0.92604 -1.27626,-0.92604 -0.67439,0 -0.88326,0.17751 -1.38906,1.18054 -0.53227,1.05552 -0.59574,1.57388 -0.59936,4.89479 -0.002,2.04284 -0.10445,3.87261 -0.22715,4.06617 -0.12671,0.19988 -0.5536,0.31418 -0.98814,0.26458 -0.66917,-0.0764 -0.77509,-0.20779 -0.8453,-1.04853 -0.0774,-0.92722 -0.11734,-0.9617 -1.12921,-0.97567 -0.8346,-0.0115 -1.13709,0.12007 -1.48037,0.64399 -1.297,1.97946 -4.77943,1.81622 -5.89944,-0.27655 -0.19471,-0.36381 -0.47413,-0.58723 -0.62095,-0.49649 -0.14682,0.0907 -0.72054,0.14721 -1.27493,0.12548 -0.76951,-0.0301 -1.07648,0.0885 -1.29756,0.50161 -0.68395,1.27797 -2.77102,1.90947 -4.33963,1.31308 l -0.67869,-0.25803 v 4.17387 c 0,4.26341 -0.12004,4.80886 -1.05833,4.80886 -0.23283,0 -0.56621,-0.14287 -0.74083,-0.3175 z m 61.3304098,-3.65125 c 0,-1.60072 -0.10844,-2.91041 -0.24098,-2.91041 -0.13254,0 -0.50405,0.54343 -0.82558,1.20762 -0.47766,0.98672 -0.55146,1.4574 -0.40347,2.57307 0.19236,1.45002 0.51214,2.04014 1.10556,2.04014 0.28749,0 0.36447,-0.61474 0.36447,-2.91042 z M -93.414482,176.74289 c 1.63701,-1.63701 1.48697,-7.46101 -0.22891,-8.88506 -0.62835,-0.52149 -1.67348,-0.12098 -2.1651,0.8297 -0.56774,1.09788 -0.79063,4.75489 -0.38161,6.26099 0.30828,1.13511 1.29706,2.41698 1.86437,2.41698 0.15875,0 0.56881,-0.28017 0.91125,-0.62261 z m 45.93056,0.0829 c 0.71096,-0.71096 0.97887,-1.46476 1.19287,-3.35628 0.48757,-4.30955 -1.8264,-7.60165 -3.41919,-4.86452 -1.08826,1.8701 -0.82838,6.82033 0.42866,8.16522 0.68845,0.73656 1.10384,0.7494 1.79766,0.0556 z m 8.97963,0.27816 c 0.93244,-0.49902 1.3881,-2.35592 1.28805,-5.24906 -0.1017,-2.94104 -0.5979,-4.07339 -1.85154,-4.22533 -1.29822,-0.15734 -2.07749,1.60088 -2.07522,4.68221 0.002,2.33663 0.35257,3.8203 1.07403,4.54176 0.57882,0.57882 0.86538,0.62468 1.56468,0.25042 z m 19.83544,-0.25364 c 0.79911,-0.79912 1.1398,-2.54398 1.0224,-5.23627 -0.0848,-1.94493 -0.21803,-2.59346 -0.65221,-3.175 -0.73721,-0.9874 -1.82863,-0.98568 -2.56758,0.004 -0.77687,1.04053 -0.96942,5.49235 -0.31202,7.21374 0.65028,1.70272 1.56508,2.1378 2.50941,1.19347 z m 26.2223598,0.24278 c 1.0372,-0.55509 1.42597,-1.80873 1.43349,-4.62236 0.01,-3.66412 -0.83699,-5.29238 -2.48095,-4.77061 -1.81913,0.57738 -2.12338,7.32702 -0.40761,9.04279 0.70933,0.70932 0.76084,0.72172 1.45507,0.35018 z m -72.8349998,-6.50627 c 0.0418,-0.59338 -0.12563,-1.41725 -0.39687,-1.95255 -0.37916,-0.74827 -0.62162,-0.92604 -1.26299,-0.92604 -0.64556,0 -0.87726,0.17289 -1.24104,0.92604 -0.246,0.50932 -0.52845,1.66286 -0.62765,2.56342 l -0.18036,1.63738 1.81828,-0.61087 c 1.80342,-0.60588 1.81886,-0.61925 1.89063,-1.63738 z m 85.91812,15.4438 c -0.3814,-0.32903 -0.79939,-1.06869 -0.93448,-1.65364 -0.13443,-0.58209 -0.24708,-5.9399 -0.25032,-11.90625 -0.005,-9.80564 0.0385,-10.93687 0.45671,-11.77366 0.95509,-1.91124 2.76924,-1.91139 3.88884,-2.6e-4 0.44391,0.75772 0.54252,1.3829 0.54252,3.43958 0,2.42317 -0.0499,2.63604 -1.38907,5.92068 -1.02533,2.51498 -1.38906,3.74776 -1.38906,4.70795 0,0.88717 0.10517,1.28716 0.33073,1.25787 0.8626,-0.11201 1.29224,0.0727 1.56586,0.67323 0.28856,0.63331 0.32027,0.64017 1.02772,0.22227 0.4015,-0.23717 0.97933,-0.87487 1.28409,-1.41711 0.49181,-0.87506 0.55411,-1.41841 0.55411,-4.83308 0,-3.44978 0.0478,-3.85743 0.46302,-3.94642 0.25466,-0.0546 0.67138,-0.0494 0.92604,0.0115 0.41534,0.0993 0.46367,0.52299 0.46933,4.11474 0.006,3.92305 0.22549,5.79687 0.73847,6.30985 0.45924,0.45924 1.25261,-0.23513 2.08892,-1.82822 0.79901,-1.52206 1.07526,-2.5051 1.67983,-5.97772 0.36588,-2.1016 0.89963,-2.90655 1.77032,-2.66981 0.35623,0.0968 0.59532,0.36727 0.59532,0.67331 0,0.82614 0.76476,2.08774 2.37912,3.92475 1.74385,1.98435 2.11879,2.61335 2.11879,3.55448 0,0.84746 0.61251,0.89478 1.17563,0.0908 0.34915,-0.49848 0.41187,-1.72474 0.41187,-8.05196 0,-7.04302 0.0277,-7.47273 0.4919,-7.62004 0.27054,-0.0859 0.68726,-0.0812 0.92604,0.0105 0.37569,0.14417 0.43415,0.69929 0.43415,4.12266 0,2.84825 0.0828,3.90487 0.29579,3.77325 0.64655,-0.39959 2.15744,-0.57964 2.97342,-0.35434 0.47405,0.13089 1.21233,0.60545 1.64062,1.05457 l 0.77871,0.81659 -0.0664,4.18378 c -0.0585,3.68855 -0.0145,4.20368 0.37186,4.35194 0.57296,0.21986 1.47956,-0.64131 2.08232,-1.97798 0.4535,-1.0057 0.98051,-1.32265 1.31076,-0.78831 0.24679,0.39932 -0.8095,2.24995 -1.72289,3.0185 -1.09574,0.92201 -2.32762,0.92631 -3.18632,0.0111 -0.61511,-0.65558 -0.64193,-0.83747 -0.65349,-4.43177 -0.0131,-4.08058 -0.27071,-5.09822 -1.35966,-5.37153 -0.35295,-0.0886 -0.80646,-5.3e-4 -1.05396,0.20478 -0.92975,0.77106 -1.23813,2.14044 -1.39197,6.18111 l -0.1511,3.96875 h -0.79375 c -0.72226,0 -0.80101,-0.087 -0.87429,-0.96573 -0.0756,-0.90587 -0.13625,-0.96573 -0.9791,-0.96573 -0.65433,0 -1.01066,0.1711 -1.31101,0.62949 -0.64728,0.98787 -1.90553,1.51316 -3.25909,1.3606 -1.31199,-0.14788 -2.12162,-0.78863 -2.23344,-1.76758 -0.10559,-0.92433 0.76568,-1.06533 1.10286,-0.17847 0.63725,1.67609 2.40883,1.46181 2.95384,-0.35729 0.41165,-1.37396 0.11843,-2.01104 -1.94127,-4.21775 l -1.51441,-1.6225 -0.16233,0.73519 c -0.75064,3.39962 -1.99603,6.0307 -3.29106,6.95284 -1.13061,0.80506 -2.53782,0.7009 -3.4297,-0.25386 l -0.73151,-0.78309 -0.60712,0.64625 c -0.33391,0.35543 -0.82458,0.71526 -1.09037,0.79962 -0.43597,0.13837 -0.46763,0.37834 -0.32345,2.45195 0.19145,2.75362 -0.16611,4.32181 -1.22737,5.38308 -0.907,0.90699 -1.59221,0.94972 -2.51154,0.15662 z m 2.01595,-1.27639 c 0.23154,-0.82856 0.27972,-4.70326 0.0714,-5.7447 -0.0956,-0.47808 -0.36346,-0.85642 -0.66146,-0.93435 -0.47338,-0.12379 -0.50078,0.068 -0.50078,3.50434 0,1.99942 0.0819,3.71716 0.1819,3.8172 0.31373,0.31373 0.72243,0.0248 0.90891,-0.64249 z m -0.29706,-7.6533 c 0,-0.14552 -0.11906,-0.26458 -0.26458,-0.26458 -0.14552,0 -0.26459,0.11906 -0.26459,0.26458 0,0.14553 0.11907,0.26459 0.26459,0.26459 0.14552,0 0.26458,-0.11906 0.26458,-0.26459 z m 0.37023,-13.0165 c 0.0177,-2.23291 -0.0765,-3.46269 -0.28103,-3.66788 -0.74619,-0.74866 -0.88281,0.0837 -0.86273,5.25675 l 0.0202,5.20991 0.54844,-1.7198 c 0.42679,-1.33831 0.55435,-2.46492 0.57509,-5.07898 z m 35.25759,13.77517 c -0.98973,-0.57532 -1.23198,-1.83957 -1.23198,-6.42942 0,-4.04457 0.0376,-4.38491 0.51177,-4.63871 0.66187,-0.35422 0.69724,-0.35 1.18912,0.14189 0.34582,0.34581 0.41578,1.18316 0.41578,4.97651 0,3.37585 0.0914,4.68569 0.35167,5.04168 0.50858,0.69552 1.23561,0.21679 2.10969,-1.38918 0.67562,-1.24133 0.71364,-1.50241 0.71364,-4.90026 0,-3.10067 0.0611,-3.62327 0.44909,-3.8404 0.27122,-0.15177 0.69557,-0.15761 1.07137,-0.0147 0.36634,0.13928 1.05775,0.13874 1.68114,-0.001 1.31,-0.29433 2.72855,0.0618 3.56068,0.89392 0.97225,0.97225 1.26234,2.52484 0.93133,4.98448 -0.38425,2.85516 -0.35906,4.02626 0.0947,4.40284 0.60325,0.50065 1.37184,-0.0892 2.05414,-1.57649 0.39106,-0.85242 0.77005,-1.31989 1.07008,-1.31989 0.68895,0 0.57279,0.81756 -0.301,2.1186 -1.13117,1.68429 -2.48254,2.25444 -3.74368,1.5795 -1.00458,-0.53764 -1.17929,-1.30257 -1.17929,-5.16323 0,-3.13989 -0.0741,-3.82752 -0.47959,-4.44775 -0.59704,-0.91333 -1.6247,-0.87173 -2.34287,0.0948 -0.5766,0.77602 -1.00897,3.97543 -1.01199,7.48845 l -0.002,2.33187 -0.85989,-0.0829 c -0.65882,-0.0635 -0.87966,-0.222 -0.94438,-0.67771 l -0.0845,-0.59479 -0.86653,0.66094 c -0.92312,0.70409 -2.29635,0.86127 -3.15649,0.36129 z m 21.02394,-0.13181 c -1.25476,-0.87887 -1.35384,-1.62047 -1.35384,-10.13407 0,-7.6659 0.018,-7.94635 0.52917,-8.21989 0.37597,-0.20121 0.68236,-0.20121 1.05833,0 0.47978,0.25677 0.52917,0.55399 0.52917,3.18431 v 2.90111 h 1.19063 c 1.01423,0 1.19062,0.0784 1.19062,0.52916 0,0.45078 -0.17639,0.52917 -1.19062,0.52917 h -1.19063 l 0.004,4.69636 c 0.004,4.81133 0.201,5.9241 1.07875,6.09313 0.60278,0.11609 1.76946,-0.9067 2.36432,-2.07271 0.48251,-0.9458 0.52178,-1.57982 0.52178,-8.42382 0,-6.98174 0.0279,-7.4099 0.49189,-7.55717 0.27054,-0.0859 0.68726,-0.0812 0.92604,0.0105 0.3757,0.14416 0.43415,0.69928 0.43415,4.12265 0,2.84825 0.0828,3.90487 0.2958,3.77325 0.64654,-0.39959 2.15744,-0.57964 2.97342,-0.35433 0.47405,0.13089 1.21233,0.60544 1.64062,1.05457 l 0.77871,0.81658 -0.0664,4.18378 c -0.0583,3.6777 -0.0137,4.20398 0.36899,4.35084 0.46396,0.17804 1.26127,-0.40669 1.76983,-1.29794 0.167,-0.29267 0.36523,-1.78228 0.44052,-3.31025 0.20143,-4.08843 1.32688,-5.893 3.67525,-5.893 2.05299,0 3.466402,1.61208 3.468092,3.95557 0.001,1.73155 -0.60224,2.27088 -3.059902,2.73461 -0.95937,0.18102 -1.80377,0.48409 -1.87645,0.67349 -0.20142,0.52489 0.66716,2.14849 1.40963,2.63498 1.74963,1.1464 3.584422,0.63122 4.733182,-1.329 0.71461,-1.21938 1.44036,-1.57164 1.44036,-0.69911 0,0.71706 -1.0698,2.18558 -2.09594,2.8771 -1.651842,1.11317 -4.617442,0.7175 -6.138682,-0.81904 l -0.69401,-0.70097 -1.06081,1.06081 c -1.31672,1.31673 -2.52178,1.44569 -3.52434,0.37717 -0.6151,-0.65557 -0.64192,-0.83746 -0.65348,-4.43177 -0.0131,-4.08057 -0.27071,-5.09821 -1.35966,-5.37152 -0.35295,-0.0886 -0.80647,-5.3e-4 -1.05396,0.20478 -0.92975,0.77106 -1.23814,2.14043 -1.39198,6.18111 l -0.1511,3.96875 h -0.79375 c -0.61398,0 -0.81234,-0.13058 -0.87583,-0.57653 l -0.0821,-0.57652 -0.94702,0.64267 c -1.12141,0.76101 -2.83041,0.85719 -3.75268,0.21121 z m 20.23337,-6.52226 c 0.24668,-0.77721 -0.15193,-2.46718 -0.7277,-3.0852 -1.21615,-1.30538 -2.45409,0.0675 -2.76786,3.0695 l -0.16643,1.59227 1.75531,-0.54982 c 1.13575,-0.35575 1.80873,-0.71815 1.90668,-1.02675 z m 11.882582,6.64955 c -0.7632,-0.4599 -1.17258,-1.06463 -1.18221,-1.74635 -0.0127,-0.89776 0.87032,-0.76376 1.229,0.18649 0.1936,0.5129 0.54767,0.8452 1.02939,0.96611 1.01897,0.25574 1.96653,-0.83878 1.96653,-2.27154 0,-1.06542 -0.27644,-1.49394 -2.53828,-3.93481 l -1.08308,-1.1688 -0.31914,1.62215 c -0.33541,1.70486 -0.93045,3.34819 -1.29364,3.57266 -0.11829,0.0731 -0.37433,0.0345 -0.56896,-0.0858 -0.28004,-0.17307 -0.29175,-0.39697 -0.0561,-1.07299 0.16379,-0.46986 0.48182,-1.91486 0.70672,-3.21111 0.63627,-3.66727 0.93041,-4.21914 2.12685,-3.99042 0.49237,0.0941 0.64436,0.29091 0.64436,0.83428 0,0.78513 1.16715,2.76748 2.11536,3.59283 1.1782,1.02554 2.11797,2.56934 2.11797,3.47928 0,0.98139 0.47153,1.17076 1.17173,0.47057 0.35845,-0.35845 0.41577,-1.4515 0.41577,-7.92819 0,-7.24163 0.0191,-7.52262 0.52917,-7.79562 0.37597,-0.20121 0.68236,-0.20121 1.05833,0 0.49142,0.263 0.52917,0.55399 0.52917,4.07918 v 3.79596 l 0.99218,-0.34356 c 1.93417,-0.66973 3.70622,0.18906 4.45938,2.16117 0.41608,1.0895 0.4321,1.49076 0.15034,3.76697 -0.40157,3.24422 -0.39375,3.86867 0.0531,4.23953 0.52491,0.43564 1.13035,0.1098 1.79539,-0.96625 0.48786,-0.78939 0.5856,-1.35179 0.60468,-3.47948 0.0184,-2.05148 0.13068,-2.74074 0.58589,-3.59623 1.04358,-1.96123 2.39302,-2.63472 4.40026,-2.1961 0.5923,0.12943 1.19747,0.11487 1.47858,-0.0356 0.26174,-0.14008 0.73327,-0.18739 1.04784,-0.10512 0.55976,0.14638 0.57194,0.25208 0.57194,4.96292 0,5.48513 0.17892,6.17197 1.39947,5.37223 1.76719,-1.1579 2.84652,-5.89272 1.94585,-8.53604 -0.23392,-0.6865 -0.3609,-1.35237 -0.28219,-1.47972 0.0787,-0.12735 0.5389,-0.23155 1.02267,-0.23155 0.65022,0 0.91483,0.13484 1.0148,0.51712 0.27022,1.03334 3.17346,1.03571 3.50128,0.003 0.12109,-0.38155 0.40266,-0.51998 1.05763,-0.51998 0.49093,0 0.96115,0.11093 1.04494,0.24651 0.0838,0.13558 -0.18821,1.11785 -0.60446,2.18282 -1.56494,4.00392 -1.94651,6.89438 -1.03108,7.8108 0.42853,0.42899 0.53296,0.4351 1.18467,0.0693 0.3931,-0.22064 0.98529,-0.80266 1.31599,-1.29338 0.59075,-0.87661 0.60126,-1.02559 0.60126,-8.5167 0,-7.35369 0.0188,-7.63454 0.52917,-7.90768 0.37597,-0.20121 0.68236,-0.20121 1.05833,0 0.49142,0.263 0.52917,0.55399 0.52917,4.07941 v 3.7962 l 1.01174,-0.34858 c 1.04867,-0.36129 2.30195,-0.22331 3.42352,0.37694 0.81404,0.43566 1.38557,1.65549 1.38557,2.95727 0,0.89624 -0.16555,1.26348 -0.90123,1.99916 -0.49568,0.49569 -1.26959,0.97491 -1.71979,1.06495 -0.45021,0.09 -0.81856,0.18675 -0.81856,0.21491 0,0.0282 0.18126,0.66158 0.40281,1.4076 0.4123,1.38838 1.38102,2.44381 2.24302,2.44381 0.69897,0 1.80719,-0.99141 2.39401,-2.14168 0.53041,-1.03965 1.31016,-1.40052 1.31016,-0.60632 0,0.78084 -1.15832,2.50205 -2.05801,3.05808 -1.09711,0.67806 -2.80658,0.55922 -3.98053,-0.27671 -0.82479,-0.5873 -1.73072,-2.21417 -2.01926,-3.62619 -0.15685,-0.76762 -0.10582,-0.83286 0.88346,-1.12926 1.14559,-0.34322 2.41184,-1.62976 2.41184,-2.45047 0,-1.03584 -0.74256,-2.32952 -1.43718,-2.50386 -0.94339,-0.23678 -1.37085,-0.0143 -1.91689,0.99769 -0.37498,0.69494 -0.4995,1.73891 -0.60915,5.10684 l -0.13782,4.23334 -0.83728,0.0812 c -0.64771,0.0628 -0.87551,-0.0392 -1.0061,-0.45067 -0.16793,-0.52911 -0.17325,-0.5292 -1.0148,-0.0161 -2.05927,1.25562 -4.36427,0.31627 -4.59398,-1.87217 -0.10728,-1.02204 0.70871,-5.02968 1.34501,-6.60585 0.13179,-0.32645 -0.0651,-0.38128 -1.10961,-0.30898 l -1.26982,0.0879 -0.31201,1.96101 c -0.38742,2.43493 -1.80123,5.56588 -2.94973,6.53227 -1.03089,0.86745 -2.31129,0.95083 -3.25092,0.21171 -0.64289,-0.50569 -0.66025,-0.50571 -1.42475,-0.002 -1.43606,0.94667 -3.65353,0.50322 -4.71028,-0.94197 -0.33598,-0.45948 -0.41136,-0.43199 -1.3276,0.48425 -0.69169,0.69169 -1.20242,0.97139 -1.77372,0.97139 -2.14177,0 -2.69357,-1.22594 -2.47483,-5.49831 0.13753,-2.68609 0.0942,-3.22445 -0.32375,-4.02669 -0.38523,-0.73936 -0.63952,-0.92604 -1.26142,-0.92604 -0.61019,0 -0.89676,0.20061 -1.32292,0.92604 -0.46851,0.79755 -0.56235,1.51344 -0.67628,5.15938 l -0.1323,4.23333 h -0.92604 c -0.87596,0 -0.93042,-0.0527 -1.00708,-0.97407 -0.0748,-0.89943 -0.14333,-0.97229 -0.89412,-0.95095 -0.57223,0.0163 -1.06255,0.29532 -1.65517,0.94199 -0.69878,0.7625 -1.0644,0.93683 -2.14858,1.02445 -0.74263,0.06 -1.53489,-0.032 -1.83567,-0.2133 z m 21.29332,-0.75115 c 0.94354,-0.50497 1.40079,-2.38262 1.28461,-5.27516 -0.11787,-2.93479 -0.60823,-4.04896 -1.84811,-4.19923 -1.32867,-0.16104 -2.0767,1.60004 -2.0767,4.88915 0,2.31464 0.44043,3.90606 1.24982,4.51608 0.52962,0.39916 0.753,0.41027 1.39038,0.0692 z m 32.94626,0.76519 c -0.77708,-0.44764 -1.19062,-1.05368 -1.19062,-1.74482 0,-0.82994 0.98681,-0.85173 1.10606,-0.0244 0.0465,0.32256 0.39825,0.76196 0.78169,0.97645 0.62346,0.34879 0.76888,0.34295 1.37668,-0.0553 0.8223,-0.53879 1.16647,-1.99124 0.71876,-3.03338 -0.17086,-0.39776 -1.00827,-1.47311 -1.86092,-2.38968 l -1.55027,-1.66648 -0.3112,1.53419 c -0.36608,1.80455 -1.1784,3.78315 -1.55324,3.78315 -0.54367,0 -0.59806,-0.60752 -0.1969,-2.19831 0.22722,-0.90098 0.59399,-2.59065 0.81502,-3.75482 0.23879,-1.25754 0.57507,-2.24356 0.82854,-2.42931 0.48956,-0.35876 1.60515,-0.0428 1.49784,0.42424 -0.13653,0.59423 0.72771,2.15864 1.87198,3.38854 1.68312,1.80908 2.56137,3.20715 2.56137,4.07741 0,0.96229 0.57113,0.99101 1.29927,0.0654 0.33147,-0.4214 0.70067,-0.63133 0.94525,-0.53748 0.96057,0.36861 -0.14338,1.77891 -1.42092,1.81523 -0.66151,0.0188 -1.10969,0.26284 -1.73413,0.94423 -0.69879,0.7625 -1.0644,0.93683 -2.14858,1.02445 -0.71858,0.0581 -1.54464,-0.0316 -1.83568,-0.19925 z M -12.116362,165.29501 c -0.40346,-0.40347 -0.17988,-1.39035 0.35333,-1.55958 0.69498,-0.22058 1.35845,0.32801 1.25684,1.03921 -0.0794,0.55589 -1.20945,0.92108 -1.61017,0.52037 z m 38.52252,-0.2686 c -0.21888,-0.57038 0.25115,-1.28695 0.84416,-1.28695 0.25932,0 0.59271,0.19217 0.74087,0.42706 0.40422,0.6408 0.0306,1.29273 -0.74087,1.29273 -0.38369,0 -0.75018,-0.18791 -0.84416,-0.43284 z m 30.53374,0.2686 c -0.65159,-0.65159 0.22147,-1.8453 1.13706,-1.5547 0.84371,0.26778 0.6287,1.5593 -0.27717,1.66494 -0.36925,0.0431 -0.7562,-0.007 -0.85989,-0.11024 z m 102.078632,-1.35712 c 0.39653,-0.94338 0.44476,-1.66714 0.13586,-2.03934 -0.41717,-0.50266 -0.0986,-1.46639 0.4848,-1.46639 1.16059,0 1.46047,1.64372 0.56716,3.10886 -0.55698,0.9135 -1.54353,1.24313 -1.18782,0.39687 z m -251.968422,-7.26281 c -0.23513,-0.23513 -0.3175,-2.77644 -0.3175,-9.79525 v -9.47776 l 0.65362,-0.29781 c 0.49415,-0.22515 0.74796,-0.21952 1.04029,0.0231 0.28747,0.23858 0.64366,0.24994 1.38855,0.0443 1.40294,-0.38737 2.76788,0.0365 3.7614,1.16806 1.10503,1.25856 1.45228,2.72318 1.27023,5.35759 -0.12109,1.75233 -0.0788,2.18282 0.21426,2.18282 0.2008,0 0.5522,-0.1871 0.78087,-0.41578 0.33946,-0.33946 0.41578,-1.11476 0.41578,-4.22402 0,-3.53747 0.0376,-3.82839 0.52916,-4.09146 0.37597,-0.20121 0.68237,-0.20121 1.05834,0 0.4989,0.26701 0.52916,0.55399 0.52916,5.0175 0,3.94858 0.0689,4.8032 0.41525,5.14954 0.60659,0.60659 1.3059,0.12793 2.09865,-1.43649 0.60398,-1.19189 0.6611,-1.60096 0.6611,-4.7341 0,-2.76493 0.0806,-3.51005 0.41578,-3.84526 0.51056,-0.51057 1.0431,-0.53113 1.48565,-0.0574 0.28149,0.30133 0.47708,0.29894 1.22847,-0.015 1.53841,-0.64279 3.33492,0.0227 4.29008,1.58921 0.59663,0.9785 0.65817,2.4944 0.23034,5.67342 -0.30172,2.24199 -0.092,3.2419 0.6799,3.2419 0.43896,0 1.5682,-1.40798 1.96383,-2.44857 0.27722,-0.72915 0.90564,-0.96294 1.22022,-0.45394 0.22944,0.37124 -1.03372,2.47225 -1.89247,3.14774 -0.77082,0.60633 -2.1159,0.70816 -2.76556,0.20937 -1.00169,-0.76907 -1.3284,-2.25085 -1.05908,-4.8034 0.36699,-3.47815 -0.43055,-5.71618 -1.90512,-5.34609 -1.22636,0.3078 -1.61677,1.6875 -1.77005,6.2553 l -0.13761,4.10104 -0.85082,0.0822 c -0.72349,0.0699 -0.87625,-0.0191 -1.02074,-0.59481 l -0.16993,-0.67704 -0.78549,0.66095 c -1.15988,0.97598 -2.60256,0.91286 -3.4995,-0.1531 -0.37674,-0.44772 -0.68498,-0.92397 -0.68498,-1.05833 0,-0.13435 -0.52767,-0.24428 -1.17261,-0.24428 -0.99871,0 -1.25573,0.11673 -1.73308,0.78711 -0.74104,1.04069 -2.31937,1.52728 -3.73145,1.15037 l -1.03578,-0.27646 v 4.14365 c 0,4.2322 -0.12102,4.77866 -1.05833,4.77866 -0.23283,0 -0.56621,-0.14287 -0.74083,-0.3175 z m 4.43057,-9.19978 c 1.10027,-0.58884 1.8145,-4.02278 1.35626,-6.52074 -0.35978,-1.96123 -1.00782,-2.87969 -2.03185,-2.87969 -0.64059,0 -0.86213,0.19224 -1.36051,1.18055 -0.47189,0.9358 -0.59531,1.62696 -0.59531,3.33395 0,2.36595 0.31958,3.63951 1.14111,4.54748 0.60149,0.66479 0.7974,0.70928 1.4903,0.33845 z m 147.94553,9.15537 c -0.21469,-0.25868 -0.28053,-3.0616 -0.23083,-9.82698 0.0637,-8.67479 0.10811,-9.4894 0.53163,-9.75647 0.34332,-0.2165 0.60065,-0.20488 1.00109,0.0452 0.40127,0.2506 0.79394,0.26794 1.53686,0.0679 2.03718,-0.54856 3.92615,0.65081 4.70148,2.9851 0.33944,1.02196 0.401,1.82631 0.27011,3.52915 -0.13974,1.81803 -0.10285,2.20551 0.20999,2.20551 0.20874,0 0.56662,-0.1871 0.7953,-0.41577 0.35549,-0.35549 0.41583,-1.36252 0.41618,-6.94531 5.3e-4,-7.1917 0.14092,-7.93709 1.65324,-8.77314 0.64941,-0.35901 0.80436,-0.3593 1.44196,-0.003 1.34259,0.751 1.79918,1.95894 1.79918,4.75979 0,2.42317 -0.0499,2.63605 -1.38906,5.92068 -1.43858,3.52859 -1.69387,5.02712 -1.08433,6.36491 0.38808,0.85173 1.0802,1.07031 1.99276,0.62933 1.27222,-0.61477 1.75709,-1.8431 1.79601,-4.5498 0.0361,-2.51317 0.3771,-3.58788 1.54261,-4.86236 0.76784,-0.83963 2.36226,-1.22977 3.49628,-0.85551 0.65976,0.21773 1.04137,0.21778 1.44798,1.7e-4 0.30366,-0.16251 0.77858,-0.2236 1.05538,-0.13575 0.4673,0.14831 0.50913,0.51721 0.58532,5.16144 0.0868,5.28998 0.2168,5.85657 1.22062,5.31934 1.10992,-0.59402 1.63956,-1.92797 1.63956,-4.12944 0,-1.1301 0.14597,-2.54194 0.32438,-3.13742 0.42529,-1.4195 1.9706,-2.95504 3.20733,-3.18705 1.8216,-0.34174 3.95577,0.66314 3.1403,1.47862 -0.1935,0.1935 -0.46204,0.14811 -0.88775,-0.15008 -0.87427,-0.61236 -1.99802,-0.53362 -2.72239,0.19075 -0.64946,0.64946 -1.21085,2.67314 -1.20831,4.35572 0.005,3.35707 2.33279,5.50565 4.83297,4.46101 1.40469,-0.58691 1.81428,-1.59981 1.87454,-4.63552 0.0405,-2.04022 0.16539,-2.76738 0.62432,-3.63456 0.70654,-1.33506 1.70752,-2.02072 2.99946,-2.05459 2.054012,-0.0539 3.432392,1.4601 3.486362,3.82926 0.0407,1.78517 -0.6342,2.41535 -3.081072,2.87704 -0.96184,0.18148 -1.81063,0.43003 -1.88622,0.55233 -0.22318,0.36111 0.5501,1.91485 1.29468,2.60139 0.49158,0.45325 1.01775,0.64328 1.83156,0.66146 1.432012,0.032 2.399502,-0.57955 3.105152,-1.96273 0.55791,-1.09362 1.32094,-1.41965 1.32094,-0.56443 0,0.71707 -1.06981,2.18559 -2.09595,2.8771 -1.61635,1.08926 -4.840652,0.59415 -6.219152,-0.955 l -0.50989,-0.57301 -0.81303,0.784 c -0.97541,0.94059 -1.96432,1.34613 -3.27764,1.34414 -1.50483,-0.002 -2.83833,-0.46692 -3.72969,-1.29958 l -0.81199,-0.75851 -1.02979,1.02979 c -1.21697,1.21697 -2.5681,1.4058 -3.48663,0.48728 l -0.5425,-0.54251 -0.93026,0.57494 c -1.34925,0.83388 -3.01087,0.60508 -4.2446,-0.58446 -0.91632,-0.88349 -0.92608,-0.88601 -1.36642,-0.35254 -1.18897,1.44043 -2.77586,1.828 -4.28639,1.04687 -0.42565,-0.22011 -0.94207,-0.72114 -1.14759,-1.11341 -0.33844,-0.64593 -0.49505,-0.70584 -1.66036,-0.63519 -1.06809,0.0648 -1.42424,0.22779 -2.09652,0.95974 -0.939,1.02233 -2.36474,1.39977 -3.71828,0.98436 l -0.89582,-0.27494 v 4.15565 c 0,4.26422 -0.11855,4.79065 -1.07886,4.79065 -0.24411,0 -0.57901,-0.16286 -0.74421,-0.36191 z m 4.32476,-9.06286 c 1.13264,-0.43463 1.90672,-3.84734 1.47737,-6.51334 -0.32671,-2.02872 -0.97239,-2.9796 -2.02324,-2.9796 -0.64059,0 -0.86214,0.19224 -1.36051,1.18055 -0.4702,0.93242 -0.59531,1.62788 -0.59531,3.30903 0,2.48364 0.29115,3.68963 1.09813,4.54862 0.62622,0.66658 0.74837,0.70616 1.40356,0.45474 z m 15.74014,-0.0925 c 0.84805,-0.45386 1.39392,-2.32586 1.39099,-4.77022 -0.004,-3.07622 -0.7253,-4.7625 -2.03803,-4.7625 -1.24858,0 -1.98438,1.75666 -1.98438,4.73759 0,2.37142 0.3003,3.58364 1.09814,4.4329 0.64756,0.68931 0.83805,0.73431 1.53328,0.36223 z m 20.32741,-6.51937 c 0.0419,-0.59563 -0.12526,-1.41897 -0.39688,-1.95501 -0.37916,-0.74828 -0.62161,-0.92605 -1.26299,-0.92605 -0.64555,0 -0.87725,0.1729 -1.24103,0.92605 -0.24601,0.50932 -0.52735,1.65316 -0.62521,2.54187 l -0.17793,1.61584 1.81584,-0.58687 c 1.80647,-0.58383 1.81621,-0.59216 1.8882,-1.61583 z m -27.88027,-6.50483 c 0.0177,-2.23291 -0.0765,-3.46269 -0.28102,-3.66788 -0.7462,-0.74867 -0.88281,0.0837 -0.86273,5.25675 l 0.0202,5.2099 0.54844,-1.71979 c 0.42679,-1.33831 0.55435,-2.46492 0.57509,-5.07898 z m -174.927788,13.6809 c -1.13761,-0.49448 -2.1841,-1.5677 -2.1841,-2.23989 0,-0.72716 0.17934,-0.6831 0.95064,0.23354 1.37725,1.63677 3.97119,1.99295 5.538048,0.76046 1.44553,-1.13705 2.14765,-4.05307 1.43258,-5.94974 -0.41437,-1.09908 -1.79932,-2.41696 -2.73581,-2.60332 -2.125248,-0.42292 -3.338168,-0.99309 -4.242878,-1.9945 -0.81806,-0.90549 -0.94258,-1.21974 -0.94258,-2.37862 0,-2.35122 1.11739,-3.69327 3.52332,-4.23169 1.52899,-0.34218 3.268278,-0.0375 4.007828,0.70204 0.62894,0.62894 0.21204,0.94765 -0.65386,0.49987 -1.12176,-0.58008 -2.958398,-0.50867 -3.792538,0.14746 -1.39566,1.09783 -1.57763,3.81885 -0.33354,4.98761 0.34454,0.32368 1.32498,0.76768 2.17876,0.98667 4.466728,1.14568 6.445028,4.86632 4.570848,8.59647 -1.22145,2.43104 -4.711888,3.61586 -7.316718,2.48364 z m 41.238478,-0.0375 c -1.25476,-0.87887 -1.35383,-1.62047 -1.35383,-10.13407 0,-7.6659 0.018,-7.94635 0.52916,-8.21989 0.37597,-0.20121 0.68236,-0.20121 1.05833,0 0.47978,0.25677 0.52917,0.55399 0.52917,3.18431 v 2.90111 h 1.19062 c 1.01424,0 1.19063,0.0784 1.19063,0.52916 0,0.45077 -0.17639,0.52917 -1.19063,0.52917 h -1.19062 l 0.004,4.69635 c 0.004,4.81134 0.201,5.9241 1.07875,6.09314 0.60278,0.11609 1.76946,-0.9067 2.36431,-2.07271 0.48252,-0.9458 0.52179,-1.57983 0.52179,-8.42383 0,-6.98173 0.0279,-7.40989 0.49189,-7.55716 0.27054,-0.0859 0.68726,-0.0812 0.92604,0.0105 0.37465,0.14377 0.43415,0.6885 0.43415,3.97476 0,2.09448 0.0663,3.80815 0.14742,3.80815 0.0811,0 0.66406,-0.13009 1.29551,-0.2891 0.98225,-0.24733 1.3213,-0.21246 2.34733,0.2414 2.06123,0.91178 2.36831,2.06416 1.91764,7.19636 -0.18513,2.10831 -0.15631,2.57225 0.17694,2.84883 0.54735,0.45426 1.01894,0.2108 1.73925,-0.89788 0.52544,-0.80875 0.62058,-1.32567 0.66848,-3.63221 0.0452,-2.17523 0.1654,-2.8965 0.6289,-3.77334 0.7271,-1.37548 1.74949,-2.04684 3.11707,-2.04684 2.03907,0 3.3537,1.49253 3.38924,3.84787 0.026,1.72599 -0.54883,2.26404 -3.03065,2.83655 -1.80226,0.41575 -1.94088,0.49657 -1.87567,1.09354 0.10387,0.95089 0.88792,1.90094 2.0412,2.47336 0.92578,0.45951 1.11731,0.47163 2.09097,0.1323 0.98321,-0.34267 1.4106,-0.78354 2.42889,-2.50552 0.18149,-0.30693 0.44322,-0.41392 0.73685,-0.30124 0.42647,0.16364 0.42763,0.22966 0.0183,1.03939 -0.98046,1.93962 -2.32333,2.84903 -4.20698,2.84903 -1.4328,0 -2.91292,-0.56635 -3.86607,-1.4793 l -0.68643,-0.65747 -1.06838,1.06838 c -1.10628,1.10628 -1.98268,1.33901 -2.99738,0.79596 -1.06718,-0.57114 -1.30186,-1.58326 -1.23706,-5.33503 0.0524,-3.03481 -0.007,-3.641 -0.4185,-4.27223 -0.35632,-0.54654 -0.65561,-0.71449 -1.16446,-0.65348 -1.54287,0.185 -2.17726,2.42011 -2.18709,7.70566 l -0.005,2.86103 -0.85989,-0.0829 c -0.64975,-0.0626 -0.87996,-0.2238 -0.94198,-0.65943 l -0.0821,-0.57652 -0.94703,0.64267 c -1.1214,0.761 -2.83041,0.85719 -3.75267,0.21121 z m 18.6222,-5.60572 c 1.56847,-0.46806 1.58837,-0.48626 1.65987,-1.51776 0.0422,-0.60935 -0.123,-1.42958 -0.39688,-1.97006 -0.37916,-0.74828 -0.62161,-0.92605 -1.26299,-0.92605 -0.64744,0 -0.87436,0.17069 -1.23112,0.92605 -0.4876,1.0324 -0.91285,3.97075 -0.57385,3.96515 0.11961,-0.002 0.93185,-0.21678 1.80497,-0.47733 z m 11.67841,5.3403 c -0.95957,-0.95958 -1.17472,-1.98696 -1.38537,-6.61547 -0.1819,-3.99672 -0.18103,-4.00545 0.41424,-4.19438 1.0883,-0.34541 1.26381,0.23078 1.53673,5.04487 0.14991,2.64426 0.39498,4.77775 0.59086,5.14375 l 0.3347,0.6254 0.60124,-0.69898 c 1.12065,-1.30283 1.75338,-3.53038 1.89689,-6.67811 0.10134,-2.22281 0.23159,-2.98855 0.5513,-3.24114 0.54371,-0.42957 0.7224,-0.41717 1.22461,0.085 0.32458,0.32459 0.41577,1.0183 0.41577,3.16297 0,2.24745 0.11704,3.06963 0.64341,4.51976 0.35388,0.97492 0.87771,2.00687 1.16406,2.29323 0.51782,0.51782 0.5225,0.51724 0.85806,-0.10689 0.19508,-0.36284 0.45978,-2.5583 0.62752,-5.20475 0.28946,-4.56685 0.42264,-5.07199 1.33716,-5.07199 0.90213,0 0.96793,0.38453 0.68006,3.9745 -0.41547,5.18123 -0.4089,5.27782 0.35937,5.27782 1.44365,0 1.47411,-0.17469 1.47411,-8.45317 0,-6.51758 0.0586,-7.67028 0.40471,-7.9575 0.30946,-0.25683 0.55855,-0.26579 1.05833,-0.0381 0.64994,0.29613 0.65363,0.31878 0.65363,4.01269 v 3.71488 l 0.7276,-0.20348 c 2.12088,-0.59312 3.93393,0.22134 4.69308,2.10821 0.41138,1.02249 0.42213,1.43165 0.11503,4.37838 -0.29636,2.84366 -0.28904,3.30021 0.0585,3.64774 0.5660698,0.56607 1.1979698,0.22539 1.9332098,-1.04225 0.55089,-0.94979 0.61524,-1.32197 0.48971,-2.83238 -0.30117,-3.62365 1.32229,-6.41908 3.72792,-6.41908 2.0929,0 3.40664997,1.45969 3.44737997,3.83035 0.026,1.51004 -0.55101997,2.23761 -2.07141997,2.61213 -3.16566,0.77979 -3.05154,0.71207 -2.78743,1.65404 0.50673,1.8073 2.84076,3.01926 4.37064,2.2695 1.45510997,-0.71312 1.80332997,-1.55412 1.81847997,-4.39182 0.0114,-2.13801 0.11772,-2.78975 0.62207003,-3.81357 0.74284,-1.50798 1.678,-2.16063 3.09586,-2.16063 2.03763,0 3.33056,1.4655 3.40107,3.85502 0.0326,1.10631 -0.0673,1.39604 -0.65634,1.9032 -0.38491,0.3314 -1.38804,0.73641 -2.24896,0.908 -2.21166,0.44083 -2.33812,0.55398 -1.87036,1.67351 0.7851,1.87899 2.68688,2.70627 4.34489,1.89004 1.86119,-0.91627 1.94581,-1.29813 2.0046,-9.04627 0.0492,-6.48878 0.083,-6.91908 0.59745,-7.60789 0.7591502,-1.0165 1.8052002,-1.32804 2.6345202,-0.78465 1.32261,0.8666 1.58271,1.62911 1.58271,4.63976 0,2.76144 -0.0134,2.82065 -1.31582,5.83247 -1.09792,2.53881 -1.317,3.31203 -1.32292,4.66897 -0.007,1.73075 0.5276,2.73937 1.45344,2.73937 0.6941,0 1.80355,-0.99473 2.38868,-2.14168 0.48826,-0.95707 0.9862,-1.26909 1.38648,-0.86881 0.32664,0.32664 -1.16618,2.77287 -2.00384,3.28362 -1.55951,0.95088 -3.44373,0.55742 -4.41404,-0.92173 l -0.4888502,-0.74521 -0.35511,0.58661 c -1.23593,2.0417 -5.32811,2.09805 -7.41197,0.10208 l -0.70685,-0.67705 -0.35148003,0.58079 c -1.23223,2.03621 -5.67645997,2.0609 -7.47323997,0.0415 l -0.50718,-0.57003 -0.83633,0.91306 c -1.4837,1.61982 -3.3200098,1.56915 -4.1732098,-0.11517 -0.40019,-0.79002 -0.44517,-1.38125 -0.31179,-4.0982 0.13514,-2.75276 0.0918,-3.29816 -0.32609,-4.10104 -0.38797,-0.74545 -0.63676,-0.92605 -1.27571,-0.92605 -0.6744,0 -0.88327,0.17751 -1.38907,1.18055 -0.53227,1.05552 -0.59574,1.57388 -0.59936,4.89479 -0.002,2.04283 -0.10445,3.87261 -0.22715,4.06616 -0.12671,0.19989 -0.5536,0.31419 -0.98814,0.26459 -0.60362,-0.0689 -0.78218,-0.23548 -0.8463,-0.7895 -0.073,-0.63078 -0.2075,-0.71275 -1.32292,-0.80631 -0.6829,-0.0573 -1.289,0.0138 -1.34688,0.15796 -0.0579,0.14416 -0.37989,0.53677 -0.71558,0.87246 -1.18062,1.18062 -2.94634,0.60839 -4.18316,-1.35566 l -0.77064,-1.22377 -0.55631,0.99175 c -0.66652,1.18824 -2.07453,2.19803 -3.06484,2.19803 -0.4234,0 -1.00477,-0.28624 -1.41542,-0.69688 z m 27.3476398,-5.35554 c 1.44975,-0.47946 1.45548,-0.48563 1.52718,-1.6462 0.094,-1.52181 -0.69429,-2.88472 -1.66852,-2.88472 -0.54153,0 -0.7812,0.22672 -1.1887,1.12448 -0.49745,1.09591 -0.73128,3.91046 -0.32361,3.89515 0.10914,-0.004 0.85328,-0.22402 1.65365,-0.48871 z m 8.46666,-0.005 1.45521,-0.48632 -0.009,-1.31771 c -0.0113,-1.62892 -0.65347,-2.72184 -1.59937,-2.72184 -0.53631,0 -0.76683,0.22471 -1.15362,1.12448 -0.64972,1.51146 -0.94973,3.90528 -0.48816,3.89515 0.18691,-0.004 0.99468,-0.22629 1.79505,-0.49376 z m 8.2185002,-6.10712 c 0.31855,-1.96726 0.0929,-4.79305 -0.43803,-5.4865 -0.71578,-0.93482 -0.89365,0.17659 -0.87702,5.48025 l 0.0162,5.15937 0.51071,-1.71979 c 0.28089,-0.94589 0.63557,-2.49088 0.78817,-3.43333 z m 10.58994,11.59285 c -1.38829,-0.95147 -1.99028,-2.36319 -2.10044,-4.92572 -0.0834,-1.94067 -0.0145,-2.35299 0.60513,-3.61944 0.55997,-1.14455 0.93367,-1.54274 1.87587,-1.99885 1.19424,-0.57813 2.46696,-0.55208 3.23445,0.0662 0.22395,0.18041 0.33073,0.1763 0.33073,-0.0127 0,-0.43882 0.983,-0.63832 1.5775,-0.32016 0.51241,0.27424 0.53916,0.52936 0.53916,5.14164 0,3.87219 0.076,4.91618 0.37615,5.16526 0.52085,0.43227 1.28268,-0.0769 1.98515,-1.32677 0.48625,-0.86517 0.54912,-1.42035 0.54912,-4.84928 v -3.87225 l 0.67123,-0.30583 c 0.54529,-0.24845 0.74864,-0.22843 1.08376,0.10669 0.36735,0.36735 0.52069,0.37004 1.40022,0.0246 1.99123,-0.78217 4.26635,0.56142 4.67947,2.76351 0.10054,0.53597 0.0322,2.24131 -0.15197,3.78963 -0.25369,2.13325 -0.26112,2.95277 -0.0307,3.38334 0.34842,0.65105 0.40265,0.66571 1.09388,0.29578 0.98004,-0.5245 1.40606,-1.82345 1.42924,-4.35778 0.0181,-1.97898 0.13264,-2.60241 0.678,-3.69042 0.36092,-0.72004 0.96709,-1.5346 1.34704,-1.81012 0.744,-0.53954 2.30386,-0.69515 3.47637,-0.3468 l 0.72761,0.21617 v -3.84732 c 0,-3.51776 0.0421,-3.86068 0.49189,-4.00343 0.27054,-0.0859 0.68268,-0.0829 0.91586,0.007 0.37481,0.14383 0.43282,1.17077 0.5003,8.85664 0.0554,6.3152 0.16309,8.78063 0.39346,9.01076 0.48772,0.48721 1.58106,-0.36406 2.25852,-1.75847 0.54962,-1.13129 1.05211,-1.46551 1.38748,-0.92286 0.24679,0.39931 -0.8095,2.24994 -1.72288,3.0185 -1.00609,0.84657 -2.2429,0.90878 -3.04711,0.15326 l -0.57638,-0.54148 -0.97381,0.57456 c -1.37856,0.81338 -3.06828,0.60274 -4.2348,-0.52789 l -0.858,-0.83161 -0.99027,0.93395 c -0.67912,0.64049 -1.23923,0.93395 -1.78258,0.93395 -2.0595,0 -2.61529,-1.30187 -2.43499,-5.7036 0.11805,-2.88187 0.0806,-3.2371 -0.42588,-4.03679 -0.74764,-1.18052 -1.74687,-1.09491 -2.51392,0.21539 -0.46602,0.79608 -0.56067,1.52015 -0.67439,5.15937 l -0.1323,4.23334 -0.83728,0.0812 c -0.6477,0.0628 -0.8755,-0.0392 -1.00609,-0.45068 -0.16794,-0.5291 -0.17326,-0.52919 -1.01481,-0.0161 -1.09601,0.66829 -2.05542,0.655 -2.93986,-0.0407 -0.67925,-0.5343 -0.73229,-0.53836 -1.22362,-0.0937 -0.28248,0.25564 -1.08035,0.51758 -1.77305,0.58209 -1.01082,0.0941 -1.43773,-0.005 -2.16248,-0.5016 z m 2.74875,-0.85306 c 0.90619,-0.9062 1.27994,-2.58787 1.12773,-5.0742 -0.18883,-3.08455 -0.94836,-4.35115 -2.39194,-3.98883 -1.93914,0.48669 -2.36322,7.27497 -0.56672,9.07146 0.78032,0.78031 1.04339,0.7791 1.83093,-0.008 z m 21.02631,0.37417 c 1.10027,-0.58884 1.8145,-4.02277 1.35626,-6.52073 -0.35766,-1.94968 -1.00906,-2.87969 -2.01702,-2.87969 -1.15993,0 -1.77852,1.29285 -1.92143,4.01579 -0.13797,2.62868 0.27872,4.38648 1.21429,5.1224 0.7658,0.60237 0.74118,0.59765 1.3679,0.26224 z m 63.278962,0.68139 c -1.28863,-0.71424 -1.33264,-1.04157 -1.34265,-9.98736 -0.008,-7.52273 0.0347,-8.38911 0.42476,-8.53881 0.23878,-0.0916 0.6555,-0.0963 0.92604,-0.0105 0.4415,0.14013 0.49189,0.46453 0.49189,3.16651 v 3.01038 l 1.25439,0.0806 c 0.94518,0.0608 1.27607,0.19478 1.34232,0.54366 0.0744,0.39168 -0.11889,0.46302 -1.25439,0.46302 l -1.34232,1e-5 v 4.45843 c 0,4.48725 0.22585,5.95189 0.96129,6.23411 0.6522,0.25027 1.78463,-0.51906 2.415,-1.64065 0.57447,-1.02213 0.59246,-1.2798 0.59246,-8.48329 0,-7.15836 0.0193,-7.43947 0.52917,-7.71235 0.37597,-0.20121 0.68236,-0.20121 1.05833,0 0.49152,0.26305 0.52917,0.55399 0.52917,4.08907 v 3.80586 l 1.01312,-0.39796 c 2.01603,-0.79192 4.28913,0.53732 4.70442,2.75099 0.10028,0.53459 0.0366,2.24865 -0.1416,3.80902 -0.23886,2.09198 -0.2468,2.98117 -0.0302,3.38586 0.33749,0.63061 0.3945,0.64515 1.08351,0.2764 0.99155,-0.53066 1.41733,-1.82321 1.4355,-4.35778 0.0142,-1.98383 0.12646,-2.59975 0.67252,-3.69042 0.84076,-1.6793 1.81274,-2.39385 3.20657,-2.3573 1.93445,0.0507 3.40078,1.7738 3.40159,3.9972 5.3e-4,1.38193 -0.58967,2.04543 -2.16844,2.4379 -0.62614,0.15565 -1.49563,0.37426 -1.93219,0.4858 -2.35721,0.60228 0.46368,4.1012 2.93298,3.63796 0.89674,-0.16823 2.30236,-1.51565 2.61775,-2.50938 0.18264,-0.57544 0.78524,-0.73279 1.06608,-0.27837 0.24098,0.38992 -0.93966,2.37366 -1.78461,2.99853 -1.1084,0.81971 -3.56277,0.91547 -5.04708,0.19693 -0.64372,-0.31162 -1.37651,-0.79433 -1.62842,-1.07269 -0.44686,-0.49378 -0.48217,-0.48072 -1.44921,0.53584 -0.75342,0.79202 -1.19558,1.04196 -1.84329,1.04196 -2.12463,0 -2.67673,-1.2622 -2.4948,-5.7036 0.11805,-2.88188 0.0806,-3.23711 -0.42588,-4.0368 -0.74764,-1.18051 -1.74687,-1.0949 -2.51391,0.2154 -0.46603,0.79607 -0.56067,1.52015 -0.6744,5.15937 l -0.13229,4.23333 -0.85082,0.0822 c -0.71664,0.0693 -0.87671,-0.0209 -1.01499,-0.57187 l -0.16417,-0.6541 -0.94016,0.63801 c -1.05081,0.7131 -2.48211,0.82355 -3.48303,0.26879 z m 20.02512,-7.48659 c 0.0609,-1.01361 -0.0486,-1.46383 -0.49355,-2.02944 -1.22758,-1.56063 -2.61756,-0.23503 -2.8273,2.69634 l -0.13274,1.8553 1.68769,-0.60981 1.6877,-0.60981 z m -213.865562,-5.38614 c -0.36217,-1.14107 1.16964,-1.81655 1.73287,-0.76414 0.21693,0.40534 0.21098,0.64401 -0.0231,0.92604 -0.47546,0.5729 -1.50759,0.47516 -1.70978,-0.1619 z m 112.78736,-31.76444 c -0.52145,-0.20083 -0.79968,-0.56348 -0.99835,-1.30126 -0.18455,-0.68538 -0.25157,-9.798191 -0.20311,-27.621192 l 0.0723,-26.598355 0.60272,-0.602588 c 0.50785,-0.507731 0.87124,-0.599567 2.30851,-0.583417 1.79885,0.02021 2.77731,0.523552 2.77731,1.428702 0,0.365538 0.30425,0.28879 1.80155,-0.454432 1.61306,-0.80069 2.0352,-0.894816 4.03489,-0.89966 6.15965,-0.01492 10.14884,4.145586 11.5271,12.022161 0.53757,3.072148 0.35708,7.909237 -0.40137,10.756457 -0.28867,1.083673 -0.45731,2.079599 -0.37476,2.213171 0.24575,0.397632 2.59319,0.0428 3.32606,-0.502759 1.65769,-1.233998 1.57647,-0.199371 1.61526,-20.575192 0.0319,-16.778419 0.0789,-18.686668 0.48883,-19.882617 1.49842,-4.371151 4.92828,-6.367156 8.38546,-4.879918 3.42219,1.472188 5.39515,6.307075 5.3923,13.214293 -0.003,6.144389 -0.74172,8.811974 -5.68203,20.505208 l -2.90641,6.879166 0.13261,2.910417 c 0.15985,3.5082 0.71808,5.488614 1.87253,6.643057 2.54818,2.548178 6.72595,0.532128 9.26552,-4.471215 l 0.99809,-1.96638 -0.34287,-1.557938 c -0.5182,-2.354673 -0.44874,-8.009533 0.12962,-10.553774 1.02995,-4.530743 3.5934,-8.319505 6.6174,-9.780458 2.68011,-1.29482 6.18488,-1.342307 8.78878,-0.119086 1.63435,0.767763 1.64113,0.76771 2.03174,-0.0158 0.24137,-0.484135 0.62853,-0.706472 1.4847,-0.852631 1.23844,-0.211418 3.07068,0.08364 3.56104,0.573458 0.21062,0.210384 0.33778,4.294873 0.43105,13.845418 0.11714,11.995578 0.18374,13.660559 0.58156,14.538594 0.57913,1.27821 1.4814,1.717985 2.586,1.260444 1.278662,-0.529638 3.252392,-2.913206 4.448332,-5.372002 l 1.09762,-2.256655 -0.38341,-1.809607 c -0.52326,-2.469608 -0.56913,-19.326423 -0.0545,-20.030202 0.74785,-1.022749 4.11287,-1.049223 4.85217,-0.03817 0.21766,0.29768 0.34852,3.386355 0.44059,10.39944 0.14652,11.159982 0.31211,12.519046 1.93226,15.859056 1.5236,3.140956 3.38127,4.101475 5.66605,2.929665 1.8243,-0.935638 3.04262,-3.239268 3.99915,-7.561734 0.15226,-0.688046 0.3403,-5.741347 0.41787,-11.229556 0.0984,-6.964476 0.23398,-10.105694 0.44878,-10.39944 0.71473,-0.977458 4.12086,-0.956805 4.84196,0.02936 0.2756,0.376912 0.34641,3.464841 0.34641,15.107549 0,8.048593 0.1012,14.633805 0.22488,14.633805 0.44657,0 2.31528,-1.524508 3.54425,-2.891414 0.69045,-0.767945 1.76285,-2.425835 2.38312,-3.684196 1.05048,-2.131142 1.18825,-2.293739 2.01042,-2.372685 1.0082,-0.09681 1.8915,0.533879 1.8915,1.350563 0,0.959821 -2.48916,5.257741 -3.99646,6.90051 -0.81917,0.892794 -2.51311,2.278108 -3.76431,3.078472 l -2.2749,1.455208 -0.0131,7.143751 c -0.0142,7.698337 -0.21172,9.309507 -1.43811,11.729668 -1.27652,2.5191 -3.74873,4.00293 -6.05487,3.63417 -4.35602,-0.69656 -7.15698,-5.765861 -6.7218,-12.165401 0.11856,-1.7435 0.31975,-2.45125 1.20417,-4.236087 1.22998,-2.482193 3.59132,-5.113725 5.92767,-6.605906 1.43468,-0.916308 1.52135,-1.031682 1.52135,-2.025185 v -1.053523 l -1.08856,0.687181 c -1.68575,1.064165 -3.10513,1.462477 -5.21718,1.464064 -1.60541,0.0013 -2.23352,-0.135845 -3.6409,-0.79444 -1.80522,-0.844765 -3.87373,-2.754183 -4.75358,-4.387959 -0.27576,-0.512016 -0.58204,-0.930947 -0.68064,-0.930947 -0.0986,0 -0.48476,0.521266 -0.85812,1.158367 -1.81991,3.105433 -4.69075,4.960123 -7.677692,4.960123 -2.11488,0 -3.45182,-0.629119 -4.82306,-2.269556 l -0.98871,-1.182826 -1.16274,1.071772 c -0.63951,0.589476 -1.67687,1.299199 -2.30525,1.577163 -2.4477,1.082733 -6.10941,1.061011 -8.47355,-0.05027 -1.52615,-0.717378 -3.82243,-2.781975 -4.50609,-4.051448 -0.59768,-1.109832 -0.73828,-1.154427 -1.11427,-0.353433 -0.44826,0.954976 -2.14275,2.788584 -3.33491,3.608723 -1.56932,1.079598 -3.39628,1.628106 -5.48809,1.64769 -3.63181,0.034 -6.20412,-1.583753 -8.02354,-5.046104 -0.95306,-1.813681 -0.99148,-1.849382 -1.57729,-1.465543 -1.29017,0.845349 -4.18999,0.973532 -6.01999,0.266108 -0.31151,-0.12042 -0.61668,0.154511 -1.11459,1.004128 -0.97379,1.661644 -2.94471,3.514643 -4.59938,4.324199 -2.65098,1.297003 -6.42488,1.234649 -8.97831,-0.148344 l -1.41523,-0.766524 v 12.248367 c 0,14.160961 0.13852,13.381081 -2.40344,13.531691 -0.78816,0.0467 -1.75833,-0.0404 -2.15594,-0.19351 z m 91.928712,-2.94942 c 0.42747,-0.748391 0.66217,-16.867187 0.24559,-16.867187 -0.39379,0 -1.97452,1.940483 -2.76733,3.397149 -1.64786,3.027647 -1.90476,7.092487 -0.69566,11.007107 0.83627,2.707531 2.39579,3.901341 3.2174,2.462931 z M 40.792988,77.071587 c 1.79237,-0.677204 3.32394,-3.07584 4.21278,-6.597751 0.41113,-1.629055 0.50031,-2.955583 0.49807,-7.408333 -0.002,-4.878617 -0.0647,-5.641387 -0.61883,-7.586495 -0.84032,-2.949573 -2.09958,-4.910627 -3.62855,-5.650791 -3.90806,-1.891861 -6.95909,2.840463 -7.42557,11.517495 -0.41068,7.639044 1.47126,14.125257 4.49701,15.499233 1.28157,0.581951 1.4771,0.599929 2.46509,0.226642 z m 45.32712,-0.485566 c 2.47706,-1.729105 3.95237,-6.693644 3.96351,-13.337545 0.01,-5.952154 -1.01307,-10.078201 -3.06094,-12.34494 -2.98112,-3.299756 -6.47872,-1.145714 -8.08206,4.977442 -1.08296,4.135832 -0.93752,11.698462 0.30611,15.917566 1.33789,4.538882 4.28692,6.592954 6.87338,4.787477 z M 64.483128,47.599687 c 0.48553,-2.240277 0.57818,-3.531592 0.58935,-8.214391 0.0143,-6.003084 -0.27473,-8.292489 -1.2719,-10.074056 -0.81566,-1.457275 -1.62378,-1.529035 -2.22608,-0.197672 -0.41407,0.915289 -0.4631,2.443265 -0.5163,16.092561 l -0.0588,15.081249 1.45381,-5.014774 c 0.79959,-2.758126 1.71305,-6.210938 2.0299,-7.672917 z m -162.01781,32.103041 c -2.33016,-0.342472 -4.123288,-1.725068 -5.277198,-4.068988 -0.76042,-1.544645 -0.82306,-1.866476 -0.73094,-3.755395 0.17449,-3.57768 1.75708,-5.720995 4.755388,-6.440281 2.0924,-0.501957 4.26325,-0.191304 6.37632,0.912469 1.26327,0.659876 1.84361,0.845267 1.92693,0.615555 0.35629,-0.982286 0.95022,-4.548174 1.21144,-7.273305 0.20663,-2.155616 0.22808,-5.382302 0.0699,-10.517904 -0.27436,-8.909701 -0.20262,-12.351673 0.30881,-14.814098 1.30433,-6.280215 5.92719,-9.66406 11.75495,-8.604408 2.01166,0.365777 3.05746,0.855389 3.4688,1.623987 0.23549,0.440003 0.21276,0.642799 -0.10799,0.963546 -0.35496,0.354953 -0.65608,0.363515 -2.38483,0.0678 -1.08821,-0.186145 -2.41599,-0.256385 -2.95062,-0.156089 -1.41493,0.265442 -3.16176,1.982781 -3.82794,3.763313 -1.18316,3.162279 -1.19764,3.368173 -1.19764,17.023654 0,12.404968 -0.0301,13.236654 -0.5689,15.742708 -0.31289,1.455208 -0.80597,3.346873 -1.09574,4.2037 l -0.52685,1.557864 2.55095,2.570347 c 3.40225,3.428119 4.57626,4.09752 7.17904,4.09339 1.53088,-0.0024 2.27347,-0.142968 3.23774,-0.612756 1.78619,-0.870231 3.50668,-2.741189 4.68425,-5.093904 l 1.01879,-2.035492 -0.36416,-1.547823 c -0.46213,-1.964251 -0.46137,-7.033548 10e-4,-9.617615 0.71482,-3.991046 2.62975,-7.720689 4.8665,-9.478271 1.44771,-1.137582 2.44973,-1.583076 4.18317,-1.859828 5.51848,-0.881049 10.18234,2.789063 11.23646,8.842266 0.47225,2.71186 0.207,5.157161 -0.7233,6.668053 -1.12278,1.823503 -2.58227,2.506715 -7.493,3.507618 -2.2449,0.457552 -4.50458,1.034338 -5.02152,1.28175 -0.88341,0.422807 -0.93657,0.519944 -0.88468,1.616528 0.073,1.542102 1.45267,4.305151 2.84494,5.697413 0.60584,0.605845 1.8085,1.439828 2.67257,1.85329 1.32911,0.635989 1.91735,0.754612 3.81999,0.770321 1.95076,0.01611 2.44943,-0.07988 3.7609,-0.723892 1.68503,-0.827453 3.14001,-2.328778 4.31798,-4.455496 l 0.78478,-1.416627 0.1323,-21.866632 c 0.12555,-20.753399 0.15706,-21.893996 0.61887,-22.404161 1.07059,-1.182679 4.45356,-0.922574 4.94899,0.380511 0.14077,0.370246 0.25297,4.233567 0.25297,8.710243 v 8.044889 l 3.49974,0.07382 3.49975,0.07383 0.2555,0.727604 c 0.16427,0.46782 0.16427,0.987388 0,1.455208 l -0.2555,0.727604 -3.49975,0.07383 -3.49974,0.07382 0.002,11.964717 c 0.001,7.038541 0.11573,12.665652 0.27822,13.667155 0.60434,3.724783 1.85076,5.267333 3.96721,4.909762 2.14153,-0.36181 4.06573,-2.368024 6.04043,-6.297919 1.1422,-2.273107 1.27896,-2.436453 2.10616,-2.515704 0.97899,-0.09379 1.89348,0.527183 1.89348,1.285748 0,0.730986 -2.044,4.612688 -3.19702,6.07137 -1.353,1.711672 -3.19649,3.067143 -4.87277,3.582829 -1.59022,0.489212 -5.07259,0.54502 -6.42904,0.103031 -1.61662,-0.526761 -3.18646,-1.775666 -3.98129,-3.167359 l -0.74675,-1.307512 -0.82142,1.022149 c -1.11672,1.38961 -2.99819,2.586537 -5.07332,3.22748 -2.18925,0.676193 -6.38171,0.727339 -8.77546,0.107058 -3.1543,-0.817367 -6.17504,-2.80248 -7.91088,-5.198748 l -0.71682,-0.989539 -0.98728,1.433489 c -2.74757,3.989342 -6.37314,5.62425 -11.39813,5.139851 -2.4066,-0.231982 -4.21878,-1.202172 -6.81712,-3.649652 -1.25625,-1.183315 -2.38513,-2.15148 -2.50861,-2.15148 -0.12348,0 -0.42619,0.422923 -0.67268,0.939829 -0.65538,1.37433 -2.70247,3.451643 -4.03904,4.098668 -1.41703,0.685972 -3.52647,0.992328 -5.16975,0.750811 z m 2.00155,-2.654806 c 0.86453,-0.393906 2.33568,-2.547591 3.2006,-4.685498 0.79192,-1.957475 0.78068,-1.983031 -1.59035,-3.616023 -1.11351,-0.766908 -1.58688,-0.938205 -2.40545,-0.870455 -0.85388,0.07067 -1.14508,0.26404 -1.79591,1.192559 -0.64024,0.913399 -0.79865,1.448895 -0.90117,3.046261 -0.10424,1.624288 -0.0283,2.142405 0.46896,3.200313 0.32633,0.694245 0.90573,1.43202 1.28755,1.639501 0.85828,0.466392 0.91081,0.469217 1.73577,0.09334 z m 34.94678,-13.434877 c 1.01589,-0.426458 2.91864,-1.043342 4.22833,-1.370854 1.73736,-0.434464 2.57799,-0.791641 3.10885,-1.32094 0.67061,-0.668634 0.72761,-0.888497 0.72761,-2.80689 0,-5.005046 -2.0906,-8.673431 -4.94357,-8.674489 -2.08329,-7.94e-4 -3.70599,2.326812 -4.57518,6.562608 -0.56969,2.776273 -0.99152,8.38594 -0.6306,8.38594 0.13062,0 1.06867,-0.348919 2.08456,-0.775375 z m 57.4590398,16.067947 c -1.81941,-0.232402 -3.96627,-1.32801 -4.83559,-2.467742 -1.5432,-2.023237 -1.88838,-4.31124 -0.76179,-5.049409 0.85334,-0.559133 2.32397,-0.219006 2.45733,0.568336 0.42524,2.510462 1.43048,3.817363 3.34953,4.354663 2.82683997,0.791466 4.97944,-1.083927 5.68027,-4.948788 0.6407,-3.53323 -0.16653,-5.227994 -4.79507,-10.067229 -1.90941,-1.996336 -3.88875,-4.257886 -4.39853,-5.025667 -0.50978,-0.767779 -0.9643,-1.358533 -1.01005,-1.312783 -0.0457,0.04575 -0.27074,1.267933 -0.49999,2.715969 -0.73987,4.673401 -2.7325098,11.150258 -3.7405798,12.158328 -0.63957,0.639572 -2.12643,0.506201 -2.6116,-0.234262 -0.37061,-0.565621 -0.37208,-0.736002 -0.0143,-1.653646 0.90121,-2.311519 1.7478,-5.861732 2.39991,-10.064167 0.38002,-2.448949 0.8773,-5.286071 1.10507,-6.304716 0.57687,-2.579929 1.7548398,-5.10353 2.5162598,-5.39064 0.60622,-0.228592 3.36625,0.02191 3.90412,0.354322 0.15374,0.09501 0.27953,0.933228 0.27953,1.862696 0,1.451446 0.14783,1.975625 1.04756,3.714303 1.20384,2.326359 1.85778,3.162456 6.26886,8.015091 4.00661,4.407665 4.94372,6.084446 5.08086,9.091255 0.0912,1.998941 0.11509,2.06443 0.75377,2.06443 1.2437302,0 2.4937002,-0.837147 3.4259402,-2.294485 0.7921,-1.238239 1.00841,-1.409681 1.77867,-1.409681 0.87321,0 1.75267,0.647673 1.75267,1.290743 0,0.484423 -0.78063,1.934075 -1.42001,2.636999 -1.15061,1.264959 -3.61688,1.998435 -5.5914502,1.662911 -1.02234,-0.173722 -1.08202,-0.142716 -1.75507,0.911731 -2.31088,3.62041 -6.0724,5.369917 -10.3663,4.821438 z M 139.75243,78.997076 c -0.94316,-0.984443 -1.12091,-2.071918 -0.5276,-3.227893 0.8622,-1.679898 2.86258,-2.106919 4.28056,-0.913773 2.05198,1.726631 0.87403,4.878843 -1.82318,4.878843 -0.99322,0 -1.35646,-0.138756 -1.92978,-0.737177 z m 0.67868,-7.373257 c -0.32453,-0.06989 -0.83054,-0.432814 -1.12448,-0.806501 -0.52619,-0.668932 -0.53444,-1.009748 -0.53444,-22.062547 0,-15.328762 0.0846,-21.568863 0.2989,-22.039143 0.40724,-0.893785 1.55339,-1.313686 3.1635,-1.158974 2.42631,0.233137 2.21686,-1.847284 2.29678,22.813873 l 0.0706,21.798766 -0.59981,0.683445 c -0.6133,0.698815 -2.25782,1.053907 -3.57109,0.771081 z M -24.133922,40.39553 c -0.0939,-0.244734 0.039,-0.988875 0.2954,-1.653646 1.13208,-2.935335 1.24742,-3.361046 1.10437,-4.076279 -0.0833,-0.416337 -0.46212,-1.126254 -0.84189,-1.577591 -1.23253,-1.46477 -0.4854,-3.694739 1.35345,-4.039708 1.10114,-0.206577 2.36822,0.433032 2.90176,1.464788 0.51529,0.996463 0.52254,3.831982 0.0135,5.2748 -1.10358,3.127859 -4.244,6.125823 -4.82658,4.607636 z"
       id="path39" />
  </g>
</svg>
