<?xml version="1.0" encoding="UTF-8" standalone="no"?>
<!-- Created with Inkscape (http://www.inkscape.org/) -->

<svg
   width="254mm"
   height="142.87505mm"
   viewBox="0 0 254 142.87505"
   version="1.1"
   id="svg6349"
   inkscape:version="1.1.2 (b8e25be833, 2022-02-05)"
   sodipodi:docname="rainbow.svg"
   xmlns:inkscape="http://www.inkscape.org/namespaces/inkscape"
   xmlns:sodipodi="http://sodipodi.sourceforge.net/DTD/sodipodi-0.dtd"
   xmlns="http://www.w3.org/2000/svg"
   xmlns:svg="http://www.w3.org/2000/svg">
  <sodipodi:namedview
     id="namedview6351"
     pagecolor="#ffffff"
     bordercolor="#666666"
     borderopacity="1.0"
     inkscape:pageshadow="2"
     inkscape:pageopacity="0.0"
     inkscape:pagecheckerboard="0"
     inkscape:document-units="mm"
     showgrid="false"
     fit-margin-top="0"
     fit-margin-left="0"
     fit-margin-right="0"
     fit-margin-bottom="0"
     inkscape:zoom="0.77771465"
     inkscape:cx="586.33331"
     inkscape:cy="498.89764"
     inkscape:window-width="3377"
     inkscape:window-height="1417"
     inkscape:window-x="55"
     inkscape:window-y="-8"
     inkscape:window-maximized="1"
     inkscape:current-layer="layer1" />
  <defs
     id="defs6346">
    <clipPath
       clipPathUnits="userSpaceOnUse"
       id="clipPath55">
      <path
         d="M -1.907e-6,2.1362e-4 H 720 V 405.00021 H -1.907e-6 Z"
         clip-rule="evenodd"
         id="path53" />
    </clipPath>
    <clipPath
       clipPathUnits="userSpaceOnUse"
       id="clipPath65">
      <path
         d="M -1.907e-6,2.1362e-4 H 720 V 405.00021 H -1.907e-6 Z"
         clip-rule="evenodd"
         id="path63" />
    </clipPath>
    <clipPath
       clipPathUnits="userSpaceOnUse"
       id="clipPath75">
      <path
         d="M -1.907e-6,9.1553e-5 H 720 V 405.00009 H -1.907e-6 Z"
         clip-rule="evenodd"
         id="path73" />
    </clipPath>
    <clipPath
       clipPathUnits="userSpaceOnUse"
       id="clipPath85">
      <path
         d="M -1.907e-6,1.5259e-4 H 720 V 405.00015 H -1.907e-6 Z"
         clip-rule="evenodd"
         id="path83" />
    </clipPath>
    <clipPath
       clipPathUnits="userSpaceOnUse"
       id="clipPath95">
      <path
         d="M -1.907e-6,9.1553e-5 H 720 V 405.00009 H -1.907e-6 Z"
         clip-rule="evenodd"
         id="path93" />
    </clipPath>
    <clipPath
       clipPathUnits="userSpaceOnUse"
       id="clipPath105">
      <path
         d="M -1.907e-6,6.1035e-5 H 720 V 405.00006 H -1.907e-6 Z"
         clip-rule="evenodd"
         id="path103" />
    </clipPath>
    <clipPath
       clipPathUnits="userSpaceOnUse"
       id="clipPath115">
      <path
         d="M 0,6.1035e-5 H 720 V 405.00006 H 0 Z"
         clip-rule="evenodd"
         id="path113" />
    </clipPath>
    <clipPath
       clipPathUnits="userSpaceOnUse"
       id="clipPath127">
      <path
         d="M 4.77e-7,6.1035e-5 H 720 V 405.00006 H 4.77e-7 Z"
         clip-rule="evenodd"
         id="path125" />
    </clipPath>
    <clipPath
       clipPathUnits="userSpaceOnUse"
       id="clipPath143">
      <path
         d="M 0,6.1035e-5 H 720 V 405.00006 H 0 Z"
         clip-rule="evenodd"
         id="path141" />
    </clipPath>
    <clipPath
       clipPathUnits="userSpaceOnUse"
       id="clipPath153">
      <path
         d="M 0,1.2207e-4 H 720 V 405.00012 H 0 Z"
         clip-rule="evenodd"
         id="path151" />
    </clipPath>
    <clipPath
       clipPathUnits="userSpaceOnUse"
       id="clipPath167">
      <path
         d="M 0,9.1553e-5 H 720 V 405.00009 H 0 Z"
         clip-rule="evenodd"
         id="path165" />
    </clipPath>
  </defs>
  <g
     inkscape:label="Capa 1"
     inkscape:groupmode="layer"
     id="layer1"
     transform="translate(201.16495,14.282881)">
    <g
       id="g49"
       inkscape:export-filename="C:\Users\PERSONAL\Downloads\bg.png"
       inkscape:export-xdpi="96"
       inkscape:export-ydpi="96"
       transform="matrix(0.35277777,0,0,-0.35277777,-201.16495,128.59219)">
      <g
         id="g51"
         clip-path="url(#clipPath55)">
        <path
           d="M -7.4,409.6 V -4.5978 H 727.4 V 285.54 C 691.89,191.17 589.37,141.66 483.48,130.27 c -15.75,-1.73 -31.66,-2.59 -47.49,-2.59 -0.92,-0.01 -1.84,-0.02 -2.75,-0.02 -4.05,0 -8.03,0.11 -12.07,0.22 -2.03,0.07 -4.15,0.13 -6.19,0.26 -27.98,1.13 -55.65,5.17 -82.37,12 -25.79,6.69 -49.46,15.97 -69.76,27.77 l -2.12,1.26 c -30.57,18.15 -53.14,42.14 -63.01,71.3 -5.8,17.3 -12.7,34.27 -20.7,50.9 -1.64,3.45 -3.29,6.83 -5.01,10.07 -1.96,3.78 -3.92,7.36 -5.88,10.87 C 116.91,399.06 59.927,409.6 59.927,409.6 Z"
           style="fill:#ff7d7d;fill-opacity:1;fill-rule:evenodd;stroke:none"
           id="path57" />
      </g>
    </g>
    <g
       id="g59"
       inkscape:export-filename="C:\Users\PERSONAL\Downloads\bg.png"
       inkscape:export-xdpi="96"
       inkscape:export-ydpi="96"
       transform="matrix(0.35277777,0,0,-0.35277777,-201.16495,128.59219)">
      <g
         id="g61"
         clip-path="url(#clipPath65)">
        <path
           d="M -7.4,409.6 V -4.5978 H 727.4 V 222.98 C 703.81,185.73 659.29,144.64 555.36,118.93 517.85,109.65 477.65,105.1 437.75,105.1 310.9,105.1 187.09,151.19 162.53,238.35 130.31,352.94 19.405,409.6 19.405,409.6 Z"
           style="fill:#ffbe5d;fill-opacity:1;fill-rule:evenodd;stroke:none"
           id="path67" />
      </g>
    </g>
    <g
       id="g69"
       inkscape:export-filename="C:\Users\PERSONAL\Downloads\bg.png"
       inkscape:export-xdpi="96"
       inkscape:export-ydpi="96"
       transform="matrix(0.35277777,0,0,-0.35277777,-201.16495,128.59219)">
      <g
         id="g71"
         clip-path="url(#clipPath75)">
        <path
           d="M -7.4,376.6 V -4.5978 H 727.4 V 164.85 C 698.71,133.63 645.81,100.28 539.68,81.52 504.71,75.35 468.47,71.967 432.51,71.967 304.18,71.967 179.29,115.06 127.8,228.56 61.887,373.81 -7.4,376.6 -7.4,376.6 Z"
           style="fill:#ffe340;fill-opacity:1;fill-rule:evenodd;stroke:none"
           id="path77" />
      </g>
    </g>
    <g
       id="g79"
       inkscape:export-filename="C:\Users\PERSONAL\Downloads\bg.png"
       inkscape:export-xdpi="96"
       inkscape:export-ydpi="96"
       transform="matrix(0.35277777,0,0,-0.35277777,-201.16495,128.59219)">
      <g
         id="g81"
         clip-path="url(#clipPath85)">
        <path
           d="M -7.4,326 V -4.5978 H 727.4 V 102.2 C 655.46,45.759 555.7,20.808 456.04,20.808 300.98,20.808 146.13,81.206 96.608,177.37 48.564,270.71 13.056,309.76 -7.4,326 Z"
           style="fill:#6fffbc;fill-opacity:1;fill-rule:evenodd;stroke:none"
           id="path87" />
      </g>
    </g>
    <g
       id="g89"
       inkscape:export-filename="C:\Users\PERSONAL\Downloads\bg.png"
       inkscape:export-xdpi="96"
       inkscape:export-ydpi="96"
       transform="matrix(0.35277777,0,0,-0.35277777,-201.16495,128.59219)">
      <g
         id="g91"
         clip-path="url(#clipPath95)">
        <path
           d="M -7.4,224.2 V -4.5978 H 240.2 C 126.75,31.8 62.694,92.132 43.954,140.26 19.413,203.12 -7.4,224.2 -7.4,224.2 Z"
           style="fill:#00e8ed;fill-opacity:1;fill-rule:evenodd;stroke:none"
           id="path97" />
      </g>
    </g>
    <g
       id="g99"
       inkscape:export-filename="C:\Users\PERSONAL\Downloads\bg.png"
       inkscape:export-xdpi="96"
       inkscape:export-ydpi="96"
       transform="matrix(0.35277777,0,0,-0.35277777,-201.16495,128.59219)">
      <g
         id="g101"
         clip-path="url(#clipPath105)">
        <path
           d="M -7.4,77.6 V -4.5978 H 80.797 C 37.365,16.862 8.1219,51.436 -7.4,77.6 Z"
           style="fill:#6aa0ff;fill-opacity:1;fill-rule:evenodd;stroke:none"
           id="path107" />
      </g>
    </g>
    <g
       id="g109"
       inkscape:export-filename="C:\Users\PERSONAL\Downloads\bg.png"
       inkscape:export-xdpi="96"
       inkscape:export-ydpi="96"
       transform="matrix(0.35277777,0,0,-0.35277777,-201.16495,128.59219)">
      <g
         id="g111"
         clip-path="url(#clipPath115)">
        <path
           d="M 731,24.8 C 717.04,13.746 700.26,3.9448 681.2,-4.6 H 731 Z"
           style="fill:#6aa0ff;fill-opacity:1;fill-rule:evenodd;stroke:none"
           id="path117" />
      </g>
    </g>
    <path
       d="m -53.488648,90.774413 -2.656416,1.68275 -2.875139,-1.185333 v 0 l 0.800805,3.008136 -2.046111,2.373489 3.125611,0.193322 1.633361,2.676525 1.132417,-2.925234 3.069167,-0.71755 -2.434167,-1.987197 z"
       style="fill:#ffffff;fill-opacity:1;fill-rule:evenodd;stroke:none;stroke-width:0.352778"
       id="path119"
       inkscape:export-filename="C:\Users\PERSONAL\Downloads\bg.png"
       inkscape:export-xdpi="96"
       inkscape:export-ydpi="96" />
    <g
       id="g121"
       inkscape:export-filename="C:\Users\PERSONAL\Downloads\bg.png"
       inkscape:export-xdpi="96"
       inkscape:export-ydpi="96"
       transform="matrix(0.35277777,0,0,-0.35277777,-201.16495,128.59219)">
      <g
         id="g123"
         clip-path="url(#clipPath127)">
        <path
           d="M 28.326,21.597 19.761,16.09 10.41,19.946 13.003,10.112 6.4026,2.4053 16.54,1.8541 21.804,-6.8 25.498,2.6408 35.4,5.001 27.541,11.45 Z"
           style="fill:#ffffff;fill-opacity:1;fill-rule:evenodd;stroke:none"
           id="path129" />
      </g>
    </g>
    <path
       d="m -192.65983,87.669969 -1.3141,0.829027 -1.42522,-0.582083 0.39158,1.49225 -1.00577,1.157111 1.56493,0.08114 0.80997,1.326444 0.55916,-1.435805 1.50989,-0.356306 -1.20262,-0.966611 z"
       style="fill:#ffffff;fill-opacity:1;fill-rule:evenodd;stroke:none;stroke-width:0.352778"
       id="path131"
       inkscape:export-filename="C:\Users\PERSONAL\Downloads\bg.png"
       inkscape:export-xdpi="96"
       inkscape:export-ydpi="96" />
    <path
       d="m -1.9301766,87.669969 -1.2946944,0.85725 -1.4005278,-0.610306 0.3845278,1.49225 -0.9913055,1.157111 1.5134166,0.08467 0.7972778,1.322916 0.5785555,-1.435805 1.48519441,-0.356306 -1.18533331,-0.966611 z"
       style="fill:#ffffff;fill-opacity:1;fill-rule:evenodd;stroke:none;stroke-width:0.352778"
       id="path133"
       inkscape:export-filename="C:\Users\PERSONAL\Downloads\bg.png"
       inkscape:export-xdpi="96"
       inkscape:export-ydpi="96" />
    <path
       d="m -148.13187,123.79441 -1.30528,0.82762 -1.41816,-0.57891 0.38805,1.48901 -1.02658,1.15876 1.55575,0.0826 0.80433,1.3239 0.55739,-1.43372 1.52753,-0.35934 -1.22061,-0.96456 z"
       style="fill:#ffffff;fill-opacity:1;fill-rule:evenodd;stroke:none;stroke-width:0.352778"
       id="path135"
       inkscape:export-filename="C:\Users\PERSONAL\Downloads\bg.png"
       inkscape:export-xdpi="96"
       inkscape:export-ydpi="96" />
    <g
       id="g137"
       inkscape:export-filename="C:\Users\PERSONAL\Downloads\bg.png"
       inkscape:export-xdpi="96"
       inkscape:export-ydpi="96"
       transform="matrix(0.35277777,0,0,-0.35277777,-201.16495,128.59219)">
      <g
         id="g139"
         clip-path="url(#clipPath143)">
        <path
           d="m 356.08,16.8 -5.67,-3.698 -6.21,2.596 1.73,-6.5267 -4.33,-5.1133 6.69,-0.3158 3.54,-5.7422 2.36,6.2158 6.61,1.5734 -5.27,4.2468 z"
           style="fill:#ffffff;fill-opacity:1;fill-rule:evenodd;stroke:none"
           id="path145" />
      </g>
    </g>
    <g
       id="g147"
       inkscape:export-filename="C:\Users\PERSONAL\Downloads\bg.png"
       inkscape:export-xdpi="96"
       inkscape:export-ydpi="96"
       transform="matrix(0.35277777,0,0,-0.35277777,-201.16495,128.59219)">
      <g
         id="g149"
         clip-path="url(#clipPath153)">
        <path
           d="m 719.06,206 -6.69,-4.23 -7.24,2.96 v 0 l 1.98,-7.61 -5.11,-5.93 7.82,-0.42 4.12,-6.77 2.98,7.33 7.68,1.84 -6.12,4.93 z"
           style="fill:#ffffff;fill-opacity:1;fill-rule:evenodd;stroke:none"
           id="path155" />
      </g>
    </g>
    <path
       d="m 7.0762399,121.32638 -2.0037778,1.28235 -2.1695833,-0.94016 v 0 l 0.5961945,2.30964 -1.5345833,1.83956 2.3424444,0.12806 1.2347222,2.01136 0.8537222,-2.22529 2.3424443,-0.55597 -1.8732499,-1.49758 z"
       style="fill:#ffffff;fill-opacity:1;fill-rule:evenodd;stroke:none;stroke-width:0.352778"
       id="path157"
       inkscape:export-filename="C:\Users\PERSONAL\Downloads\bg.png"
       inkscape:export-xdpi="96"
       inkscape:export-ydpi="96" />
    <path
       d="m -177.18735,-11.390029 -0.55104,4.3532775 -3.88267,1.9967222 3.93806,1.8838333 0.68862,4.3250555 3.00143,-3.1891111 4.29578,0.66675 -2.09268,-3.855861 1.95509,-3.9087777 -4.26896,0.8325555 z"
       style="fill:#ffffff;fill-opacity:1;fill-rule:evenodd;stroke:none;stroke-width:0.352778"
       id="path159"
       inkscape:export-filename="C:\Users\PERSONAL\Downloads\bg.png"
       inkscape:export-xdpi="96"
       inkscape:export-ydpi="96" />
    <g
       id="g161"
       inkscape:export-filename="C:\Users\PERSONAL\Downloads\bg.png"
       inkscape:export-xdpi="96"
       inkscape:export-ydpi="96"
       transform="matrix(0.35277777,0,0,-0.35277777,-201.16495,128.59219)">
      <g
         id="g163"
         clip-path="url(#clipPath167)">
        <path
           d="m 743.13,74.797 -16.01,-10.356 -17.58,7.375 v 0 L 714.4,53.378 702,38.941 l 19.08,-1.02 9.89,-16.318 6.9,17.81 18.53,4.394 -14.76,12.003 z"
           style="fill:#ffffff;fill-opacity:1;fill-rule:evenodd;stroke:none"
           id="path169" />
      </g>
    </g>
    <path
       d="m -192.09256,36.23497 -1.98544,1.262944 -2.19498,-0.889 0.60642,2.25425 -1.54728,1.802695 2.3622,0.123472 1.25448,2.007305 0.8569,-2.194277 2.29975,-0.53975 -1.83973,-1.488723 z"
       style="fill:#ffffff;fill-opacity:1;fill-rule:evenodd;stroke:none;stroke-width:0.352778"
       id="path171"
       inkscape:export-filename="C:\Users\PERSONAL\Downloads\bg.png"
       inkscape:export-xdpi="96"
       inkscape:export-ydpi="96" />
  </g>
</svg>
